<?xml version="1.0" encoding="utf-8"?>
<!-- Generator: Adobe Illustrator 22.0.1, SVG Export Plug-In . SVG Version: 6.00 Build 0)  -->
<svg version="1.1" id="Capa_1" xmlns="http://www.w3.org/2000/svg" xmlns:xlink="http://www.w3.org/1999/xlink" x="0px" y="0px"
	 viewBox="0 0 60 60" style="enable-background:new 0 0 60 60;" xml:space="preserve">
<style type="text/css">
	.st0{fill:#FFFFFF;}
</style>
<g>
	<path class="st0" d="M35.8,47c0.5,0.3,0.9,0.5,1.4,0.8c-0.5,0.7-0.9,1.5-1.4,2.2c-1.4,2.1-2.9,4.1-4.8,5.7
		c-1.6,1.3-3.4,2.3-5.4,2.6c-1.5,0.2-3,0.1-4.4-0.6c-1.9-1-2.8-2.9-2.5-5.2c0.2-1.6,0.7-3.2,1.2-4.7c1.8-6.1,3.5-12.2,5.3-18.2
		c0.3-0.9,0.4-1.8,0.6-2.7c0.2-1.6-0.8-2.8-2.4-2.9c-0.6,0-1.2,0-1.8,0c0.2-0.5,0.3-1,0.5-1.4c0-0.1,0.2-0.1,0.3-0.2
		c4.1-0.7,8.3-1.4,12.4-2c1.1-0.2,2.2-0.2,3.3-0.2c-0.3,1.1-0.6,2.1-0.9,3.1c-2.2,7.6-4.4,15.2-6.6,22.8c-0.5,1.7-0.9,3.5-1.3,5.2
		c-0.1,0.3-0.1,0.6,0,0.9c0.2,0.9,1.2,1.2,2,0.6c0.5-0.4,1.1-0.8,1.5-1.4c1-1.3,2-2.6,3-4C35.7,47.3,35.7,47.2,35.8,47z"/>
	<path class="st0" d="M35.4,13.4c-3.2,0-5.7-2.6-5.8-5.8c-0.1-3,2.4-6.1,5.8-6c3.3,0,5.9,2.6,5.9,6C41.3,10.8,38.7,13.4,35.4,13.4z"
		/>
</g>
</svg>
