<svg id="Capa_1" data-name="Capa 1" xmlns="http://www.w3.org/2000/svg" viewBox="0 0 60 60"><defs><style>.cls-1{fill:#fff;stroke:#fff;stroke-width:1.6px;}</style></defs><title>icon</title><path class="cls-1" d="M58,51.68c-3.89-3.16-9.36-5.82-14.57-5.82-5.56,0-10,3-13,8.58V13.12c2.82-6.35,7.26-9.65,13-9.65C48,3.47,53.55,5.8,58,9.49ZM16.62,45.86c-5.21,0-10.68,2.66-14.57,5.82V9.49c4.4-3.69,9.91-6,14.57-6,5.69,0,10.13,3.3,13,9.65V54.44C26.62,48.82,22.18,45.86,16.62,45.86ZM43.38,2.5C37.56,2.5,33,5.75,30,12,27.05,5.75,22.44,2.5,16.62,2.5,11,2.5,5.13,5.56,1.2,9V53.62c4.53-4.17,10.42-6.79,15.42-6.79,6,0,10.6,3.63,13.38,10.67,2.78-7,7.39-10.67,13.38-10.67,5,0,10.89,2.62,15.42,6.79V9C54.87,5.56,49,2.5,43.38,2.5Z"/></svg>