<svg id="Capa_1" data-name="Capa 1" xmlns="http://www.w3.org/2000/svg" viewBox="0 0 60 60"><defs><style>.cls-1{fill:#fff;stroke:#fff;stroke-width:1.5px;}</style></defs><title>icon</title><path class="cls-1" d="M36.88,57.92H23.22l.68-8.42H36.25Zm19.3-9.29H3.85A2.37,2.37,0,0,1,1.69,46.1V40.38H58.34V46.1A2.37,2.37,0,0,1,56.18,48.63ZM3.85,2.08H56.18a2.37,2.37,0,0,1,2.16,2.53v34.9H1.69V4.61A2.37,2.37,0,0,1,3.85,2.08Zm52.33-.87H3.85A3.19,3.19,0,0,0,.94,4.61V46.1a3.19,3.19,0,0,0,2.91,3.4h19.3l-.67,8.42h-5v.87H42.59v-.87h-5L37,49.5H56.18a3.19,3.19,0,0,0,2.91-3.4V4.61A3.19,3.19,0,0,0,56.18,1.21Z"/></svg>