<?xml version="1.0" encoding="utf-8"?>
<!-- Generator: Adobe Illustrator 22.0.1, SVG Export Plug-In . SVG Version: 6.00 Build 0)  -->
<svg version="1.1" id="Capa_1" xmlns="http://www.w3.org/2000/svg" xmlns:xlink="http://www.w3.org/1999/xlink" x="0px" y="0px"
	 viewBox="0 0 182.2 146.2" style="enable-background:new 0 0 182.2 146.2;" xml:space="preserve">
<style type="text/css">
	.st0{fill:#DAD607;}
	.st1{fill:#7EB72F;}
	.st2{fill:#949426;}
	.st3{fill:#50762C;}
	.st4{fill:#087EB9;}
	.st5{fill:#174284;}
	.st6{fill:#0460A2;}
	.st7{fill:#327C33;}
	.st8{fill:#49A836;}
	.st9{fill:#109CD9;}
	.st10{fill:#88BA2C;}
	.st11{fill:#CA0F4E;}
	.st12{fill:#EA5919;}
	.st13{fill:#FFD406;}
	.st14{fill:#EF781B;}
	.st15{fill:#DB0778;}
	.st16{fill:#FFFFFF;}
	.st17{fill:none;stroke:#1D203E;stroke-width:0.8504;stroke-miterlimit:10;}
</style>
<g>
	<path class="st0" d="M86.4,21.2c-0.9,1.5-2.7,2.1-4,1.3c-1.3-0.8-1.6-2.7-0.7-4.2c0.9-1.5,2.8-2.1,4.1-1.3
		C87,17.8,87.3,19.7,86.4,21.2z"/>
	<path class="st1" d="M95.5,18.6c-1.9,1.1-4.2,0.7-5.1-0.9c-1-1.6-0.2-3.8,1.7-4.9c1.9-1.1,4.2-0.7,5.1,0.9
		C98.1,15.3,97.4,17.5,95.5,18.6z"/>
	<path class="st2" d="M140.8,76.8c-1.6,0-3.2-0.7-4.3-2c-1.8-2.2-1.6-5.4,0.4-7.4c1.1-1.9,2.4-9.1,3.3-13.5c2-10.7,3-16,7.3-17.6
		c2-0.8,4.4-0.3,5.9,1.3c2,2.2,2.4,4.5,0.5,7c-0.4,0.5-0.3,1.7-0.9,2c-0.7,2.2-1.5,6.5-2,9.4c-2.2,11.6-3.5,17-6.8,19.6
		C143.2,76.4,142,76.8,140.8,76.8z"/>
	<path class="st3" d="M123.2,83.5c-0.5,0-1.1-0.1-1.7-0.2c-2.9-0.9-4.5-3.9-3.7-6.8c1.2-4.1,2.1-8.9,3.1-14
		c1.6-8.6,3.2-17.5,6.8-24.9c1.3-2.7,4.6-3.8,7.3-2.5c2.7,1.3,3.9,4.6,2.5,7.3c-2.9,6-4.4,14.2-5.9,22.1c-1,5.4-1.9,10.6-3.4,15.2
		C127.7,82,125.5,83.5,123.2,83.5z"/>
	<path class="st4" d="M85.9,98.4c-0.6,0-1.3-0.1-1.9-0.4c-2.8-1.1-4.3-4.2-3.2-7.1c3-7.9,3.9-16.2,4.9-25c0.3-3.1,0.7-6.3,1.1-9.4
		c0.3-1.9,0.6-3.8,0.9-5.7c0.3-1.7,0.6-3.4,0.8-5.1c0.6-4,2.3-9.6,3.9-13.1c1.3-2.7,4.6-3.9,7.3-2.6c2.7,1.3,3.9,4.6,2.6,7.3
		c-1.2,2.5-2.5,7.1-3,10c-0.3,1.8-0.6,3.6-0.9,5.4c-0.3,1.8-0.6,3.6-0.9,5.4c-0.4,3-0.8,6.1-1.1,9.1c-1,9.1-2.1,18.6-5.5,27.7
		C90.2,97.1,88.1,98.4,85.9,98.4z"/>
	<path class="st5" d="M66.2,106.3c-0.7,0-1.4-0.1-2.1-0.4c-2.8-1.2-4.1-4.3-2.9-7.1c7.8-18.9,8.2-46.1,8.4-55.1c0-1.1,0-2,0.1-2.6
		c0-0.9,0.1-1.9,0.1-2.8c0.2-6.9,0.3-11.5,4.8-13c1-0.3,4.2-1,6.9,2.5c1.7,2.3,1.4,5.5-0.8,7.4c-0.1,1.1-0.1,2.3-0.1,3.3
		c0,0.9,0,1.9-0.1,2.9c0,0.6,0,1.4-0.1,2.4c-0.2,10.5-0.6,38.2-9.2,59C70.4,105,68.3,106.3,66.2,106.3z"/>
	<path class="st6" d="M85.8,98.4c-0.3,0-0.5,0-0.8-0.1c-3-0.4-5.1-3.2-4.7-6.2c2.7-19,0.7-45.4-8.5-59.2c-1.7-2.5-1-5.9,1.5-7.6
		c2.5-1.7,5.9-1,7.6,1.5c11.2,16.8,13.2,46.4,10.3,66.8C90.9,96.4,88.5,98.4,85.8,98.4z"/>
	<path class="st7" d="M104.2,92.4c-0.6,0-1.3-0.1-1.9-0.4c-2.8-1.1-4.3-4.3-3.2-7.1c8.1-21,9.5-33.3,11.1-46.3l10.9,1.3
		c-1.6,13.1-3.2,26.7-11.8,49C108.5,91.1,106.4,92.4,104.2,92.4z"/>
	<path class="st8" d="M127.9,67.9c-0.1-1.5-0.2-3-0.3-4.5c-0.5-8.5-1.8-18.4-7.2-27.5c-1.6-2.6-4.9-3.4-7.5-1.9
		c-2.6,1.5-3.5,4.9-1.9,7.5c4.2,7.1,5.3,15.4,5.7,22.6c0.1,1.5,0.2,3,0.3,4.5c0.2,3.4,0.4,7,0.7,10.5c0.3,2.8,2.7,4.9,5.4,4.9
		c0.2,0,0.4,0,0.6,0c3-0.3,5.2-3,4.9-6C128.3,74.7,128.1,71.4,127.9,67.9z"/>
	<path class="st1" d="M140.2,77.2c-2.7,0-5.1-2-5.5-4.7c-0.4-2.6-0.7-5.1-1-7.7l-0.2-1.5c-0.9-7.7-2.2-15.1-5.4-21.5
		c-1.4-2.7-0.3-6,2.5-7.4c2.7-1.4,6.1-0.3,7.5,2.4c4.1,8.1,5.5,16.9,6.5,25.1l0.2,1.4c0.3,2.5,0.6,4.9,1,7.4c0.4,3-1.7,5.8-4.7,6.2
		C140.7,77.2,140.4,77.2,140.2,77.2z"/>
	<path class="st9" d="M104,93.1c-0.1,0-0.1,0-0.2,0c-3-0.1-5.4-2.7-5.3-5.7c1.1-28.5,0.5-37.4-6-50.1c-1.4-2.7-0.3-6,2.4-7.4
		c2.7-1.4,6-0.3,7.4,2.4c8,15.5,8.3,26.9,7.2,55.5C109.4,90.8,106.9,93.1,104,93.1z"/>
	<path class="st0" d="M161.6,41.4L161.6,41.4c-3,0-5.5,2.4-5.5,5.4c0,2.1-0.9,8.3-4.7,11.2c-2.4,1.9-2.9,5.3-1,7.7
		c1.1,1.4,2.7,2.2,4.4,2.2c1.2,0,2.3-0.4,3.3-1.1c8.9-6.8,9-19.4,9-19.9C167,43.9,164.6,41.4,161.6,41.4z"/>
	<path class="st10" d="M160.1,61.6c-0.2-1.4-0.4-2.8-0.6-4.1c-0.8-5.6-1.6-11.3-5.1-18.9c-1.3-2.7-4.6-3.9-7.3-2.6
		c-2.7,1.3-3.9,4.6-2.6,7.3c2.8,6,3.4,10.3,4.2,15.7c0.2,1.4,0.4,2.9,0.6,4.4c0.4,2.7,2.8,4.6,5.4,4.6c0.3,0,0.6,0,0.9-0.1
		C158.6,67.4,160.6,64.6,160.1,61.6z"/>
	<path class="st11" d="M48,94.3c-0.6,0-1.2-0.1-1.9-0.3c-2.8-0.9-4.3-3.5-3.3-5.9c1.3-2.8,2.2-5.6,2.9-8.4c1.2-4.6,1.6-9.8,1.5-16.3
		c-0.1-2.7-0.2-5.5-0.3-8.2c-0.4-9.3-0.9-18.8,1.3-28.4c0.6-2.5,3.4-4.1,6.4-3.6c3,0.5,4.9,2.9,4.4,5.4c-1.9,8.5-1.6,17.2-1.1,26.3
		c0.1,2.8,0.3,5.6,0.3,8.4c0.2,7.2-0.4,13.1-1.7,18.3c-0.8,3.2-1.9,6.4-3.3,9.6C52.3,93.1,50.2,94.3,48,94.3z"/>
	<path class="st12" d="M31.2,79.6H31c-3,0-5.5-2.5-5.5-5.5c0-0.9,0.2-21.7,5.4-33.5c1.2-2.8,4.5-4,7.2-2.8c2.8,1.2,4,4.5,2.8,7.2
		c-3.6,8-4.4,23.8-4.4,29.1C36.5,77.1,34.1,79.6,31.2,79.6z"/>
	<path class="st13" d="M35.2,70.2c-4.4-4.9-7-11.8-8.2-22.3c-0.4-3.2-3.3-5.5-6.6-5.1c-3.2,0.4-5.5,3.3-5.1,6.6
		c1,8.1,3.2,19.9,11.2,28.7c1.2,1.3,2.8,2,4.4,2c1.4,0,2.8-0.5,3.9-1.5C37.1,76.3,37.3,72.6,35.2,70.2z"/>
	<path class="st14" d="M41.1,38c-1.6-2.3-4.9-3.1-7.5-1.7c-2.6,1.4-3.5,4.4-1.9,6.7c8.9,13.2,11.8,25.8,10.9,46.4
		c-0.1,2.7,2.2,5,5.3,5.1c0.1,0,0.2,0,0.2,0c2.9,0,5.4-2,5.5-4.7C54.6,67,51.2,53,41.1,38z"/>
	<path class="st15" d="M57.7,24.4c-2.1-2-5.5-2.2-7.8-0.2c-2.2,1.9-2.3,5.1-0.2,7.2c14.4,14.3,12.8,55,11,69.5
		c-0.4,2.8,1.8,5.3,4.8,5.7c0.2,0,0.4,0,0.7,0c2.7,0,5.1-1.9,5.4-4.5C71.9,99.8,78.6,45,57.7,24.4z"/>
	<path class="st1" d="M56.5,101.5c-1.2,0.7-2.9,0.3-3.6-1c-0.8-1.3-0.4-2.9,0.9-3.6c1.2-0.7,2.8-0.3,3.6,1
		C58.1,99.1,57.7,100.7,56.5,101.5z"/>
	<path class="st16" d="M75,133.6c-0.1,0.1-0.3,0.1-0.5,0.1h-2.9c-0.2,0-0.4,0-0.5-0.1c-0.1-0.1-0.1-0.2-0.1-0.5v-7.7h-7.4v7.7
		c0,0.2,0,0.4-0.1,0.5c-0.1,0.1-0.3,0.1-0.5,0.1H60c-0.2,0-0.4,0-0.5-0.1c-0.1-0.1-0.1-0.2-0.1-0.5v-18c0-0.2,0-0.4,0.1-0.5
		c0.1-0.1,0.3-0.1,0.5-0.1h2.9c0.3,0,0.5,0,0.5,0.1c0.1,0.1,0.1,0.2,0.1,0.5v6.8H71v-6.8c0-0.2,0-0.4,0.1-0.5
		c0.1-0.1,0.3-0.1,0.5-0.1h2.9c0.3,0,0.5,0,0.5,0.1c0.1,0.1,0.1,0.2,0.1,0.5v18C75.1,133.4,75.1,133.5,75,133.6z"/>
	<path class="st16" d="M86.4,126.6c0-0.6,0-1.2-0.1-1.7c-0.1-0.5-0.2-0.9-0.5-1.3c-0.2-0.4-0.5-0.7-0.8-0.9
		c-0.3-0.2-0.8-0.3-1.3-0.3c-1,0-1.7,0.4-2.1,1.1c-0.5,0.7-0.7,1.7-0.7,3c0,1.4,0.2,2.4,0.6,3.1c0.4,0.7,1.1,1.1,2.1,1.1
		c0.5,0,0.9-0.1,1.3-0.3c0.4-0.2,0.6-0.5,0.9-0.9c0.2-0.4,0.4-0.8,0.5-1.3C86.4,127.7,86.4,127.2,86.4,126.6z M90.6,126.5
		c0,2.4-0.6,4.3-1.7,5.6c-1.1,1.3-2.9,2-5.2,2c-2.4,0-4.1-0.7-5.2-2c-1.1-1.3-1.6-3.2-1.6-5.5c0-1.2,0.2-2.2,0.5-3.2
		c0.3-0.9,0.8-1.7,1.4-2.4c0.6-0.6,1.3-1.1,2.2-1.5c0.8-0.3,1.8-0.5,2.9-0.5c2.3,0,4,0.7,5.2,2C90,122.3,90.6,124.2,90.6,126.5z"/>
	<path class="st16" d="M46.2,126.6c0-0.6,0-1.2-0.1-1.7c-0.1-0.5-0.2-0.9-0.5-1.3c-0.2-0.4-0.5-0.7-0.8-0.9
		c-0.3-0.2-0.8-0.3-1.3-0.3c-1,0-1.7,0.4-2.1,1.1c-0.5,0.7-0.7,1.7-0.7,3c0,1.4,0.2,2.4,0.6,3.1c0.4,0.7,1.1,1.1,2.1,1.1
		c0.5,0,0.9-0.1,1.3-0.3c0.4-0.2,0.6-0.5,0.9-0.9c0.2-0.4,0.4-0.8,0.5-1.3C46.1,127.7,46.2,127.2,46.2,126.6z M50.3,126.5
		c0,2.4-0.6,4.3-1.7,5.6c-1.1,1.3-2.9,2-5.2,2c-2.4,0-4.1-0.7-5.2-2c-1.1-1.3-1.6-3.2-1.6-5.5c0-1.2,0.2-2.2,0.5-3.2
		c0.3-0.9,0.8-1.7,1.4-2.4c0.6-0.6,1.3-1.1,2.2-1.5c0.8-0.3,1.8-0.5,2.9-0.5c2.3,0,4,0.7,5.2,2C49.7,122.3,50.3,124.2,50.3,126.5z"
		/>
	<path class="st16" d="M97.7,122.3c-0.2,0-0.4,0-0.8,0c-0.3,0-0.7,0.1-1.1,0.1v10.8c0,0.2,0,0.3-0.1,0.4c-0.1,0.1-0.2,0.1-0.5,0.1
		h-2.8c-0.2,0-0.3,0-0.4-0.1c-0.1-0.1-0.1-0.2-0.1-0.4v-11.7c0-0.6,0.1-1.1,0.3-1.5c0.2-0.4,0.7-0.6,1.4-0.8c0.2,0,0.4-0.1,0.8-0.1
		c0.3,0,0.7-0.1,1.1-0.1c0.4,0,0.8,0,1.1-0.1c0.4,0,0.7,0,1,0c1.3,0,2.4,0.1,3.3,0.4c0.9,0.3,1.7,0.7,2.3,1.2s1.1,1.3,1.4,2.2
		c0.3,0.9,0.4,2,0.4,3.3v7.1c0,0.2,0,0.3-0.1,0.4c-0.1,0.1-0.2,0.1-0.5,0.1h-2.8c-0.2,0-0.3,0-0.4-0.1c-0.1-0.1-0.1-0.2-0.1-0.4
		v-7.4c0-0.6-0.1-1.1-0.1-1.6c-0.1-0.4-0.3-0.8-0.5-1.1c-0.2-0.3-0.6-0.5-1-0.7C98.9,122.4,98.4,122.3,97.7,122.3z"/>
	<path class="st16" d="M110.5,126.7c0,1.5,0.3,2.5,0.9,3.1c0.6,0.6,1.4,0.9,2.4,0.9c0.3,0,0.6,0,1-0.1c0.4-0.1,0.8-0.1,1.1-0.2v-7.6
		c-0.5-0.1-0.9-0.2-1.3-0.2c-0.4,0-0.7-0.1-1-0.1c-0.9,0-1.7,0.3-2.3,1C110.8,124.1,110.5,125.2,110.5,126.7z M106.4,126.7
		c0-1,0.1-2,0.4-2.9c0.3-0.9,0.6-1.7,1.2-2.4c0.5-0.7,1.2-1.3,2-1.7c0.8-0.4,1.8-0.6,3-0.6c0.5,0,0.9,0,1.4,0.1c0.4,0,1,0.1,1.5,0.2
		v-5c0-0.2,0-0.4,0.1-0.4c0.1-0.1,0.2-0.1,0.5-0.1h2.8c0.2,0,0.3,0,0.4,0.1c0.1,0.1,0.1,0.2,0.1,0.5v16.8v0.6c0,0.2,0,0.4-0.1,0.6
		c0,0.2-0.2,0.4-0.4,0.5c-0.3,0.2-0.6,0.3-1,0.4c-0.4,0.1-0.8,0.2-1.3,0.3c-0.5,0.1-1,0.2-1.4,0.2c-0.5,0-0.9,0.1-1.3,0.1
		c-0.4,0-0.8,0-1,0c-1.3,0-2.4-0.2-3.3-0.5c-0.9-0.4-1.6-0.9-2.1-1.5c-0.5-0.7-0.9-1.4-1.1-2.3C106.5,128.7,106.4,127.8,106.4,126.7
		z"/>
	<path class="st16" d="M128.8,130.8c0.2,0,0.4,0,0.8,0c0.3,0,0.7-0.1,1.1-0.1v-10.8c0-0.2,0-0.3,0.1-0.4c0.1-0.1,0.2-0.1,0.5-0.1
		h2.8c0.4,0,0.6,0.2,0.6,0.5v11.7c0,0.6-0.1,1.1-0.4,1.5c-0.2,0.4-0.7,0.6-1.3,0.8c-0.2,0-0.5,0.1-0.8,0.1c-0.3,0-0.7,0.1-1.1,0.1
		c-0.4,0-0.7,0-1.1,0.1c-0.4,0-0.7,0-1,0c-1.3,0-2.4-0.1-3.3-0.4c-0.9-0.3-1.7-0.7-2.2-1.2c-0.6-0.6-1-1.3-1.2-2.2s-0.4-2-0.4-3.3
		v-7.1c0-0.2,0-0.3,0.1-0.4c0.1-0.1,0.2-0.1,0.5-0.1h2.8c0.4,0,0.6,0.2,0.6,0.5v7.3c0,0.6,0,1.1,0.1,1.6c0.1,0.4,0.2,0.8,0.4,1.1
		c0.2,0.3,0.5,0.5,0.9,0.7C127.6,130.7,128.1,130.8,128.8,130.8z"/>
	<path class="st16" d="M140.6,133.6c-0.1,0.1-0.2,0.1-0.5,0.1h-2.8c-0.2,0-0.3,0-0.4-0.1c-0.1-0.1-0.1-0.2-0.1-0.4v-11.6
		c0-0.7,0.1-1.3,0.4-1.6c0.2-0.4,0.8-0.6,1.6-0.8c0.3,0,0.7-0.1,1-0.1c0.3,0,0.7,0,1.1,0c1.2,0,2.4,0.2,3.6,0.5
		c1.2,0.3,2.2,0.8,3.1,1.5c0.1,0.1,0.2,0.2,0.2,0.3c0,0.1,0,0.2-0.1,0.3l-1.4,2.3c-0.1,0.2-0.2,0.3-0.3,0.2c-0.1,0-0.2-0.1-0.4-0.2
		c-0.5-0.4-1.1-0.7-1.6-0.9c-0.6-0.2-1.2-0.4-2-0.4c-0.4,0-0.7,0-1.1,0.1v10.5C140.7,133.5,140.6,133.6,140.6,133.6z"/>
	<path class="st16" d="M29.6,133.6c-0.1,0.1-0.2,0.1-0.5,0.1h-2.8c-0.2,0-0.3,0-0.4-0.1c-0.1-0.1-0.1-0.2-0.1-0.4v-11.6
		c0-0.7,0.1-1.3,0.4-1.6c0.2-0.4,0.8-0.6,1.6-0.8c0.3,0,0.7-0.1,1-0.1c0.3,0,0.7,0,1.1,0c1.2,0,2.4,0.2,3.6,0.5
		c1.2,0.3,2.2,0.8,3.1,1.5c0.1,0.1,0.2,0.2,0.2,0.3c0,0.1,0,0.2-0.1,0.3l-1.4,2.3c-0.1,0.2-0.2,0.3-0.3,0.2c-0.1,0-0.2-0.1-0.4-0.2
		c-0.5-0.4-1.1-0.7-1.6-0.9c-0.6-0.2-1.2-0.4-2-0.4c-0.4,0-0.7,0-1.1,0.1v10.5C29.7,133.5,29.7,133.6,29.6,133.6z"/>
	<path class="st16" d="M155.8,127.2h-2.2c-0.3,0-0.5,0-0.8,0.1c-0.3,0-0.6,0.1-0.8,0.3c-0.2,0.1-0.5,0.3-0.6,0.6
		c-0.2,0.3-0.2,0.6-0.2,1c0,0.6,0.2,1.1,0.6,1.3c0.4,0.3,1,0.4,1.7,0.4c0.1,0,0.3,0,0.4,0c0.2,0,0.4,0,0.6-0.1
		c0.2,0,0.4-0.1,0.6-0.1c0.2,0,0.4-0.1,0.6-0.2V127.2z M159.8,132c0,0.2,0,0.4-0.1,0.6c-0.1,0.2-0.2,0.3-0.5,0.5
		c-0.4,0.2-0.9,0.4-1.3,0.5c-0.5,0.1-1,0.2-1.5,0.3c-0.5,0.1-1,0.1-1.5,0.2c-0.5,0-1,0.1-1.4,0.1c-1.2,0-2.3-0.1-3.1-0.4
		c-0.8-0.2-1.5-0.6-1.9-1c-0.5-0.4-0.8-0.9-1-1.4c-0.2-0.6-0.3-1.2-0.3-1.8c0-0.7,0.1-1.4,0.4-2s0.6-1.1,1.1-1.5s1.1-0.8,1.8-1
		c0.7-0.2,1.6-0.4,2.6-0.4h3v-0.4c0-0.3,0-0.5-0.1-0.7s-0.2-0.4-0.3-0.6c-0.2-0.2-0.4-0.3-0.7-0.4c-0.3-0.1-0.7-0.2-1.2-0.2
		c-0.3,0-0.6,0-0.9,0c-0.3,0-0.7,0.1-1,0.1c-0.3,0-0.7,0.1-1,0.2c-0.3,0.1-0.6,0.1-0.9,0.2c-0.2,0.1-0.4,0.1-0.5,0
		c-0.1-0.1-0.2-0.2-0.2-0.4l-0.4-1.9c-0.1-0.2-0.1-0.3,0-0.4c0-0.1,0.1-0.1,0.3-0.2c0.8-0.3,1.7-0.5,2.6-0.6
		c0.9-0.1,1.8-0.2,2.7-0.2c2,0,3.4,0.4,4.4,1.3c0.9,0.8,1.4,2.1,1.4,3.8V132z"/>
	<path class="st16" d="M172.6,129.6c0,1.5-0.5,2.6-1.6,3.3c-1,0.7-2.4,1.1-4.1,1.1c-0.9,0-1.9-0.1-3-0.3c-1-0.2-2-0.6-2.8-1
		c-0.1-0.1-0.2-0.2-0.3-0.3c0-0.1,0-0.2,0.1-0.4l0.8-1.9c0.1-0.2,0.2-0.3,0.3-0.4c0.1,0,0.2,0,0.5,0.1c0.3,0.1,0.6,0.3,1,0.4
		c0.4,0.1,0.7,0.2,1.1,0.3c0.4,0.1,0.8,0.2,1.1,0.2s0.7,0.1,1,0.1c0.7,0,1.1-0.1,1.4-0.3c0.3-0.2,0.4-0.5,0.4-0.9
		c0-0.4-0.2-0.7-0.6-0.9c-0.4-0.3-1-0.6-1.9-0.9c-0.7-0.3-1.4-0.6-1.9-0.8c-0.6-0.3-1-0.6-1.4-0.9c-0.4-0.3-0.7-0.7-0.9-1.1
		s-0.3-0.9-0.3-1.5c0-0.6,0.1-1.2,0.3-1.7c0.2-0.5,0.5-1,1-1.4c0.4-0.4,1-0.7,1.7-0.9c0.7-0.2,1.5-0.3,2.4-0.3
		c0.8,0,1.7,0.1,2.5,0.2c0.8,0.2,1.6,0.4,2.3,0.7c0.2,0.1,0.3,0.2,0.3,0.3c0,0.1,0,0.3-0.1,0.5l-0.7,1.7c-0.1,0.2-0.2,0.3-0.2,0.3
		c-0.1,0-0.2,0-0.4-0.1c-0.7-0.2-1.3-0.4-1.9-0.5c-0.6-0.1-1.1-0.2-1.7-0.2c-0.5,0-0.8,0.1-1.1,0.3s-0.3,0.5-0.3,0.7
		c0,0.4,0.2,0.7,0.5,0.9c0.3,0.2,0.9,0.5,1.8,0.8c0.7,0.3,1.3,0.5,1.9,0.8s1.1,0.6,1.5,0.9c0.4,0.4,0.8,0.8,1,1.3
		C172.4,128.3,172.6,128.9,172.6,129.6z"/>
	<path class="st16" d="M19.9,120.3c0-1-0.3-1.7-0.9-2.1c-0.6-0.4-1.4-0.6-2.6-0.6c-0.1,0-0.2,0-0.5,0c-0.2,0-0.4,0-0.7,0
		c-0.2,0-0.4,0-0.6,0c-0.2,0-0.3,0-0.4,0v5.5c0.1,0,0.2,0,0.4,0c0.2,0,0.4,0,0.7,0c0.2,0,0.5,0,0.7,0h0.4c1.2,0,2.1-0.2,2.6-0.7
		c0.5-0.5,0.8-1.1,0.8-2.1V120.3z M24.5,120.6c0,1.3-0.2,2.3-0.7,3.1c-0.5,0.8-1.1,1.5-1.8,2c-0.8,0.5-1.6,0.9-2.6,1.1
		c-1,0.2-2,0.3-3,0.3c-0.3,0-0.7,0-1.1,0c-0.4,0-0.8,0-1.1-0.1v6.6c0,0.1-0.1,0.3-0.2,0.4c-0.1,0.1-0.2,0.2-0.4,0.2h-3.5
		c-0.1,0-0.3,0-0.4-0.1c-0.1-0.1-0.2-0.2-0.2-0.4v-18.1c0-0.5,0.1-0.8,0.3-0.9c0.2-0.2,0.5-0.3,0.9-0.4c0.7-0.1,1.5-0.2,2.5-0.3
		c1-0.1,2-0.1,3-0.1c1,0,2,0.1,3,0.3c1,0.2,1.8,0.5,2.6,1.1c0.8,0.5,1.4,1.2,1.8,2c0.5,0.8,0.7,1.9,0.7,3.1V120.6z"/>
	<line class="st17" x1="54.4" y1="113.5" x2="54.4" y2="133.9"/>
</g>
</svg>
