<?xml version="1.0" encoding="utf-8"?>
<!-- Generator: Adobe Illustrator 22.0.1, SVG Export Plug-In . SVG Version: 6.00 Build 0)  -->
<svg version="1.1" id="Capa_1" xmlns="http://www.w3.org/2000/svg" xmlns:xlink="http://www.w3.org/1999/xlink" x="0px" y="0px"
	 viewBox="0 0 577.9 212.9" style="enable-background:new 0 0 577.9 212.9;" xml:space="preserve">
<style type="text/css">
	.st0{fill:#3A3A3A;}
</style>
<g>
	<path class="st0" d="M74,33.4c-1.2,0.3-2.9,0.1-4,0.5c-0.1,0-0.3,0.4-0.5,0.5c-0.3,0.1-0.6,0.2-0.9,0.3c-0.9,0.2-1.8,0.3-2.6,0.5
		L61,36c-1.2,0.1-3.2-0.2-3.8,1c-0.1,0.3-0.1,0.7-0.1,1c-0.3,0.8-0.8,1.6-1.2,2.3l-2.6,5.2C52,48,51.1,50.6,50,53
		c-0.6,1.4-1.4,2.9-1.9,4.4c-0.3,1.2-0.5,2.3-1,3.6c-2.3,5.5-4.9,10.9-7,16.5c-1.5,4-4.5,12.4-10.1,11.9C27,89.2,24.5,87,23,84.3
		c-1.1-2.1-2-5.2-2.1-7.5c0-0.5-0.1-1.3,0.3-1.6c0.9-1,2,0.7,2.5,1.4c1.6,2.3,3.1,5.1,5.4,7c1.1,0.8,1.4,0.9,2.2-0.2
		c1.7-2.1,2.9-5,3.7-7.6c2.1-6.4,4.6-12.7,7.1-19c2.4-6.3,4.7-12.7,7.7-18.8c-1.2,0.2-2.3,0.3-3.5,0.5c-0.9,0.1-1.5,0.5-2.4,0.7
		c-1.4,0.4-3,0.4-4.5,0.6c-1.7,0.2-3.4,0.4-5.1-0.1c-1.6-0.5-4.3-2.8-1.9-4c0.8-0.4,1.9-0.5,2.6-0.6c3.3-0.5,6.5-1.2,9.8-1.4
		c1.4-0.1,2.5-0.3,3.8-0.5c0.7-0.2,1.4-0.3,2.1-0.4c0.6-0.1,1.8,0.1,2.3-0.3c0.9-0.5,0.9-1.6,1.4-2.2c0.9-1,3-0.9,4.1-0.5
		c1.2,0.4,1.5,1,2.3,1.7c0.4,0.4-0.2,0.3,0.4,0.5c0.4,0.1,1-0.1,1.3-0.1c0.8,0,1.6-0.1,2.5-0.1c3.3-0.1,6.6-0.2,9.9,0
		c0.3,0.1,0.8,0.1,1.1,0.1c0.1-0.1,0.2-0.5,0.5-0.4c0.3,0.1,0.5,0.3,0.6,0.6C77.2,33,74.8,33.2,74,33.4z M55.6,37.8
		c-1.5,2.3-3.8,5.6-4.8,8c-1.2,2.8-4.2,10.8-5.6,14.3c1.3-3,4.7-10.6,5.7-12.5C52.6,44.5,53.8,41,55.6,37.8z"/>
	<path class="st0" d="M77.3,66.4l-2.1,2.8L71.5,74c-1,1.2-2.1,2.4-3.1,3.6c-1,1.4-1.9,2.8-3.1,4.1c-1.2,1.3-2.7,2.7-4.3,3.6
		c-1.2,0.6-2.3,0.7-3.5,0.3c-1.8-0.5-3.4-1.6-4.5-3c-0.3-0.4-0.7-0.8-0.8-1.3c-0.1-0.4-0.1-0.9-0.1-1.4c-0.1-0.8,0.2-1.4,0.3-2.3
		c0.1-0.9,0.5-1.7,0.7-2.6c0.1-1,0.4-1.9,0.5-2.7c0.1-0.8-0.1-1.7,0.1-2.5c0.1-0.5,0.5-1.1,0.8-1.7c-0.2,0.4-0.5,0.8-0.6,1.2
		c-0.2,0.5-0.3,1.1-0.5,1.6c-0.2,0.5-0.3,1-0.5,1.6c-0.3,0.6-0.5,1.2-0.6,1.9c-0.1,0.6,0,1.2-0.1,1.9c-0.1,0.6-0.3,1.1-0.3,1.7
		c0,0.2,0.1,0.6,0.1,0.8c0,0.3-0.1,0.6-0.1,1c0,0.6,0.1,1.2,0.2,1.9c-1.1-1.9-0.9-3.8-0.5-5.9s0.6-4,1.1-6c0.9-4,2.7-8,5.4-11.3
		c2.1-2.8,4.9-4.9,8.6-4.3c1.4,0.3,2.9,0.9,3.8,2.1c1,1.3,0.9,3,0.4,4.5c-0.9,2.7-3.2,4.8-5.3,6.6c-0.9,0.8-1.9,1.5-2.9,2.1
		c-0.7,0.4-1.4,0.7-2.2,1l-1.2,0.4c-0.5,0.1-0.5,0.1-0.8,0.5c-0.3,0.7-0.1,1.4-0.3,2.1c-0.1,0.9-0.3,1.7-0.5,2.6
		c-0.3,1.6-0.9,3.8-0.5,5.5c0.8,3.5,6.5-1.9,7.5-2.9c0.7-0.6,1.3-1.3,1.9-1.9c0.3-0.4,0.8-0.8,1-1.2c0,0,0.1-0.3,0.1-0.5
		c0.8-1.3,1.9-2.5,3-3.8c1.2-1.4,2.3-3,3.5-4.5c0.6-0.9,2.1-3.4,3.2-1.6v0.1c0.1,0.1,0.1,0.1,0.1,0C77.9,65.6,77.7,66,77.3,66.4z
		 M59.7,68c2.2-1.2,4.2-2.7,5.8-4.6l1.2-1.5c0.2-0.3,0.5-0.5,0.7-1c0.1-0.3-0.1-0.6,0-1l0.3-1.4c0.1-0.7-0.2-2.5-1.2-2.3
		c-0.5,0.1-1,0.8-1.2,1.1L63.9,59c-1.4,2.1-2.2,4.5-3.2,6.7c0,0,0,0.1-0.1,0.2C60.2,66.5,60,67.3,59.7,68z"/>
	<path class="st0" d="M116.6,68.1c-0.1,0-1,0.3-1,0.2c-0.7,0.3-0.5,0.2-1,0.8c-0.5,0.8-1,1.7-1.5,2.5c-0.3,0.3-2.7,3.9-3.2,3.7
		c0,0,0.5-0.7,0.5-0.8l-2,2.3c0.2-0.2,0.3-0.3,0.3-0.2c-0.4,1.2-2.7,2.5-3.7,3.3c-1.1,0.8-2.5,1.6-3.9,1.8c-1.4,0.1-2.9-0.1-4.2-0.8
		c-4-2-6.5-7.5-4.3-11.7c1.2-2.2,2-4.7,3.6-6.9c1-1.2,2-2.3,3.3-3.2c0.5-0.4,1.2-0.8,1.9-1c0.5-0.3,1.5-0.3,1.9-0.6
		c0.4-0.3,0.8-2.1,1.1-2.6c0.3-0.5,0.6-1.1,1-1.6c1-1.4,2.1-2.7,3.6-3.6c2.3-1.3,4.7,0,6.4,1.7c0,0,1.2,0.8,1.1,1.2l-0.3-0.3
		l0.3,0.5l0.1,0.1c-0.2-0.5,0.6,0.5,0.6,0.5c0.3,0.5,0.5,1.2,0.7,1.8c0.2,1,0.1,2,0,3c-0.3,2.5-1,5.1-1.8,7.6
		c2.1-0.3,4.1-0.8,6.1-1.2c0.5-0.1,1-0.5,1.3,0c0.1,0.1,0,0.1,0,0.1C125.4,67.5,117.4,68,116.6,68.1z M110.2,68.4
		c-3-0.4-6.7-1.7-7.5-5.1c-0.5,0.5-1.4,2.2-2.5,4.3l0.4-0.6c-0.1,0.7-6.7,12.8-1,11.9h0.1C104.5,77.9,108.2,72.3,110.2,68.4z
		 M113.5,52.9c-1.4-2.1-3.9,1-4.9,2.3c-0.1,0-0.1,0.1-0.1,0.1l-0.1,0.1v-0.1c-0.1,0.1-0.1,0.2-0.1,0.2c-0.3,0.5-0.8,0.9-1.2,1.6
		c0.1-0.1,0.8-1.3,0.9-1.1c0.2,0.4-1.1,2.6-1.3,3c-0.4,1.1-0.8,2.2-0.9,3.4c-0.1,1.2-0.3,2.5,0.7,3.3c0.5,0.5,1.4,0.6,2.2,0.7
		c0.4,0.1,1.3,0.2,1.7,0.1c0.7-0.1,0.5,0.1,0.8-0.6c1-1.7,1.4-4.3,1.9-6.2C113.6,58.1,114.5,54.7,113.5,52.9z M108.5,55.2
		L108.5,55.2C108.5,55.3,108.5,55.3,108.5,55.2z"/>
	<path class="st0" d="M143.3,71.6c-1.9,3.2-5.6,6-9.1,6.9c-0.4,0.1-1.9,0.1-2.3,0.4c-0.4,0.3-0.5,2.6-0.5,3.2
		c-0.2,1-0.4,1.9-0.7,2.9c-1.1,3.8-2,8.3-4.2,11.7c-1.9,3-5.3,4.9-8.5,2.5c-2.8-2.1-2.8-6.8-2.6-10c0.4-7.7,3.4-14.7,5.5-21.9
		c1.9-6.8,5.1-13.2,8.4-19.5c1.8-3.5,3.8-7.1,6-10.4c1.6-2.3,4.3-6.9,7.5-7.2c6.2-0.7,4.3,8.7,3,11.9c-2.5,6-6.2,11.7-10.2,16.9
		c-2.4,3.1-4.9,6.1-7.5,9.1c-0.8,0.9-1.6,1.9-2.5,2.7c-0.7,0.8-0.8,1-1.2,2.1c-0.3,1-0.7,2-1,3c-1.3,3.8-2.5,7.5-3.4,11.5
		c-0.6,2.7-1.6,6-1,8.8l-0.3-0.2l0.1,0.1c2.6,4.9,6.9-4.7,7.8-6.7c1.2-2.9,2.2-5.8,2.8-8.9c0.1-0.7,0.5-1.7,0.3-2.4
		c-0.1-0.8-0.8-1.6-1-2.5c-0.3-1.5-0.3-3.3,0-4.9c0.4-1.6,1.7-2.9,2.9-1c0.4,0.8,0.5,1.8,0.7,2.7c0.1,0.7-0.2,2.1,0.1,2.7
		c0.4,1,2.1,0.4,2.9,0c3.3-1.3,5.9-4.3,8.2-6.9c0.3-0.4,3.2-4.9,3.8-3.2v0.1C147.7,67.5,144.4,69.9,143.3,71.6z M117.8,93.5
		c0-2.4,1-5.6,1.3-6.9c0.3-1.6,0.7-3.2,1.2-4.7c-0.3,0.9-0.6,1.9-0.9,2.8C118.5,87.3,117.5,90.5,117.8,93.5z M127,65.4
		c4.3-4.9,8.3-10.1,11.6-15.6c1-1.6,7.5-14.7,4.9-15.4c-0.9-0.3-1.7,1.1-2.2,1.7c-1.9,2.4-3.2,5.1-4.7,7.8
		c-2.9,5.4-5.4,11.1-7.8,16.8c0.1-0.1,0,0.2-0.4,1.1v-0.1c0,0.1-0.1,0.1-0.1,0.2L127,65.4z M128.9,60.7l-0.2,0.5
		C128.8,61,128.9,60.7,128.9,60.7z"/>
	<path class="st0" d="M169.4,68.3c-0.5,1.2-1.2,2.3-2,3.4c-1.6,2.3-3.3,4.7-4.9,7c-1.6,2.3-3.4,4.5-5.6,6.4
		c-0.4,0.3-3.6,2.8-3.8,2.7c0-0.1,0.1-0.1,0.1-0.2l-0.5,0.2c0.3-0.1-1,0.8-1.3,1c-1,0.2-2-0.1-2.8-0.6c-0.9-0.5-1.4-1.4-1.8-2.3
		c-0.7-1.5-0.8-3-0.5-4.6c0.1-0.3,1-4.3,1.5-4.3c0.1,0-0.1,0.5-0.1,0.6l0.5-1.7c-0.2-0.1,3.4-7.8,3.8-8.2c-2.1,0.4-4.7,0.3-6.1-1.4
		c-0.4-0.5-0.3-1-0.4-1.4c-0.2-0.5-0.5-0.8-0.6-1.3c-0.7-3.4,3.2-8,6.5-5.8l-0.1-0.2c0.1-0.4,0.9,0.6,1,1c0,0.3-0.5,2.2-0.9,2.1
		c-0.1,0,0.4-1.2,0.4-1.3c-0.5,1.3-1.9,2.7-2.1,4.1c-0.1,1,0.4,1,1.3,1.2c1.3,0.3,3.4,0.1,5,0.6c-1.1-0.3-2.4-0.4-3.3-0.5
		c0,0-0.1,0-0.1-0.1c1,0.1,2.1,0.1,3,0.3c2,0.5,3.2,1.2,2.4,3.4c-0.8,2-1.9,4-2.7,6c-0.8,1.9-1.5,4-2.3,6c-0.2,0.7-1.7,3.6-1.2,4.3
		c0.7,0.8,4.5-2.6,5.5-3.7c-0.2,0.2-0.4,0.2-0.5,0.3c-0.1,0,1.4-1.9,1.6-2.2l2-2.5l3.7-4.9l3.8-5.1c0.3-0.4,2-2.8,2.4-1
		C170.4,66.3,169.8,67.5,169.4,68.3z M148.1,86.8c-0.1-0.1-0.1-0.1-0.1-0.2l0.1,0.1c-0.3-0.8-0.7-1.5-0.8-1.9l0.2,0.9l-0.3-1.4v-0.1
		c-0.1-0.1-0.1-0.2-0.1-0.2s0,0.1,0.1,0.1v-0.3c-0.1-1,0-1.9,0.1-2.7v-0.1c-0.1,0.6-0.2,1.2-0.2,1.9c-0.1,0.8,0,1.8,0.2,2.6
		c0.1,0.2,0.6,1.4,1,1.9c0-0.1,0-0.1-0.1-0.1c0.4,0.4,1,0.8,1.6,1C149,87.8,148.5,87.3,148.1,86.8L148.1,86.8z M147.3,80.8
		L147.3,80.8c0,0,0.1-0.1,0.1-0.1C147.3,80.8,147.3,80.8,147.3,80.8z M147.5,79.5c0,0.1-0.1,0.2-0.1,0.3
		C147.4,79.7,147.5,79.7,147.5,79.5z M147.6,79.5c0.5-1.8,1.2-3.5,1.9-5.1l1.3-3c0.3-0.6,1.8-4,2.1-4.2c-0.5,0.1-1.4,2.6-1.6,2.8
		c-0.6,1.2-1.2,2.3-1.6,3.6C148.9,75.5,148.1,77.5,147.6,79.5z M147.7,86.3c0-0.1-0.1-0.1-0.1-0.1C147.7,86.2,147.7,86.2,147.7,86.3
		z M149.7,63.5C149.7,63.5,149.7,63.4,149.7,63.5L149.7,63.5z M149.7,63.5c0.1,0.1,0.5,0.5,0.5,0.5c0.3,0.3,0.8,0.4,1.4,0.5
		c-0.6-0.1-1.2-0.1-1.6-0.4C149.9,64,149.7,63.7,149.7,63.5z M157.2,69.4l-1.4,3.1L157.2,69.4L157.2,69.4z M157.2,69.3L157.2,69.3
		L157.2,69.3L157.2,69.3z M157.2,69.3L157.2,69.3L157.2,69.3L157.2,69.3z"/>
	<path class="st0" d="M191.2,66.4l-2.1,2.8l-3.7,4.8c-1,1.2-2.1,2.4-3.1,3.6c-1,1.4-1.9,2.8-3.1,4.1c-1.2,1.3-2.7,2.7-4.3,3.6
		c-1.2,0.6-2.3,0.7-3.5,0.3c-1.8-0.5-3.4-1.6-4.5-3c-0.3-0.4-0.7-0.8-0.8-1.3c-0.1-0.4-0.1-0.9-0.1-1.4c-0.1-0.8,0.2-1.4,0.3-2.3
		c0.1-0.9,0.5-1.7,0.7-2.6c0.1-1,0.4-1.9,0.5-2.7c0.1-0.8-0.1-1.7,0.1-2.5c0.1-0.5,0.5-1.1,0.8-1.7c-0.2,0.4-0.5,0.8-0.6,1.2
		c-0.2,0.5-0.3,1.1-0.5,1.6c-0.2,0.5-0.3,1-0.5,1.6c-0.3,0.6-0.5,1.2-0.6,1.9c-0.1,0.6,0,1.2-0.1,1.9c-0.1,0.6-0.3,1.1-0.3,1.7
		c0,0.2,0.1,0.6,0.1,0.8c0,0.3-0.1,0.6-0.1,1c0,0.6,0.1,1.2,0.2,1.9c-1.1-1.9-0.9-3.8-0.5-5.9s0.6-4,1.1-6c0.9-4,2.7-8,5.4-11.3
		c2.1-2.8,4.9-4.9,8.6-4.3c1.4,0.3,2.9,0.9,3.8,2.1c1,1.3,0.9,3,0.4,4.5c-0.9,2.7-3.2,4.8-5.3,6.6c-0.9,0.8-1.9,1.5-2.9,2.1
		c-0.7,0.4-1.4,0.7-2.2,1l-1.2,0.4c-0.5,0.1-0.5,0.1-0.8,0.5c-0.3,0.7-0.1,1.4-0.3,2.1c-0.1,0.9-0.3,1.7-0.5,2.6
		c-0.3,1.6-0.9,3.8-0.5,5.5c0.8,3.5,6.5-1.9,7.5-2.9c0.7-0.6,1.3-1.3,1.9-1.9c0.3-0.4,0.8-0.8,1-1.2c0,0,0.1-0.3,0.1-0.5
		c0.8-1.3,1.9-2.5,3-3.8c1.2-1.4,2.3-3,3.5-4.5c0.6-0.9,2.1-3.4,3.2-1.6v0.1c0.1,0.1,0.1,0.1,0.1,0C191.8,65.6,191.6,66,191.2,66.4z
		 M173.6,68c2.2-1.2,4.2-2.7,5.8-4.6l1.2-1.5c0.2-0.3,0.5-0.5,0.7-1c0.1-0.3-0.1-0.6,0-1l0.3-1.4c0.1-0.7-0.2-2.5-1.2-2.3
		c-0.5,0.1-1,0.8-1.2,1.1l-1.2,1.6c-1.4,2.1-2.2,4.5-3.2,6.7c0,0,0,0.1-0.1,0.2C174.2,66.5,173.9,67.3,173.6,68z"/>
	<path class="st0" d="M208.1,73.8c-2.5,3.7-5.9,7.3-9.3,10.2c-2,1.6-4.6,3.2-7.3,2.9c-0.8-0.1-1.6-0.4-2.2-1
		c-0.4-0.4-2.3-3.1-1.9-3.5c0,0,0.3,0.7,0.3,0.8l-0.3-1.2c0,0.4-0.5-1-0.5-1.3c-0.1-0.9-0.1-1.9-0.1-2.7c0.1-1.7,0.3-3.4,0.4-5
		c0.1-1.5,0.4-3,0.9-4.4c0.1-0.3,1.3-4.1,1.7-4c0.1,0-0.1,0.6-0.1,0.6c0.3-0.7,0.5-1.4,0.8-2.2l-0.3,0.3c-0.1-0.1,2.4-5.1,2.7-5.6
		c1.1-1.8,2.4-3.4,4.1-4.6c1.2-0.9,2.5-1.5,4-1.3c1.9,0.3,2.5,1.2,3.2,2.6c0.6,1.4,1.1,2.4,1,4.2c-0.1,1-0.2,2.4-0.7,3.4
		c-0.5,1-2.6,2.3-3.7,1.5c-0.9-0.6-0.2-1,0.1-1.6l-0.3,0.3c0,0,1-3.5,1.1-3.5c0.1,0-0.2,1.5-0.2,1.6c0.3-0.9,1.2-7-1.2-5.1
		c-0.9,0.7-1.4,2.1-1.9,3c-0.8,1.7-1.5,3.4-2.1,5.1c0.8-2.2,1.8-4.4,3-6.4c0.4-0.8,0.9-1.6,1.6-2c0.1-0.1,0.6,0.1,0.5,0.2
		c-0.1,0.1-0.3-0.2-0.5-0.1c-1.6,1.5-2.5,3.5-3.4,5.5c-1.9,4.3-3.4,8.9-4.1,13.5c-0.3,2.2-0.7,4.7-0.2,6.9c0.1,0.5,0.3,1.2,0.8,1.4
		c1.2,0.8,3-0.7,4-1.4c1.4-1.1,3-2.2,4.2-3.4c-0.2,0.1-0.4,0.3-0.6,0.3c-0.1,0,1.2-1.6,1.3-1.8c0.7-0.7,1.3-1.4,1.9-2.2
		c1.1-1.4,2.3-2.7,3.4-4.2c0.5-0.7,4.1-6.4,5.5-5c1,1.2-1.4,3.8-2.1,4.7C210.3,70.8,209.1,72.3,208.1,73.8z M188.7,71.9
		c-0.3,0.8-0.3,1.7-0.2,2.5c0-0.8,0-1.6,0.3-2.1C188.9,72.2,188.7,71.9,188.7,71.9z M189,70.8c-0.3,0.1-0.3,0.5-0.3,0.8
		c0-0.1,0.1-0.4,0.2-0.6L189,70.8z M191.4,64c-0.5,1.3-1.4,2.5-1.6,3.6c0.1-0.3,0.7-0.8,0.9-1.2c0.3-0.6,0.5-1.4,0.6-2.1
		C191.3,64.2,191.4,64.1,191.4,64z M194.7,67.4c-0.3,1.1-0.7,2.2-1,3.3L194.7,67.4z M195,66.3c-0.1,0.1-0.1,0.3-0.1,0.4
		c0-0.1,0-0.1,0.1-0.1V66.3z"/>
	<path class="st0" d="M234.7,66.4l-2.1,2.8l-3.7,4.8c-1,1.2-2.1,2.4-3.1,3.6c-1,1.4-1.9,2.8-3.1,4.1c-1.2,1.3-2.7,2.7-4.3,3.6
		c-1.2,0.6-2.3,0.7-3.5,0.3c-1.8-0.5-3.4-1.6-4.5-3c-0.3-0.4-0.7-0.8-0.8-1.3c-0.1-0.4-0.1-0.9-0.1-1.4c-0.1-0.8,0.2-1.4,0.3-2.3
		c0.1-0.9,0.5-1.7,0.7-2.6c0.1-1,0.4-1.9,0.5-2.7c0.1-0.8-0.1-1.7,0.1-2.5c0.1-0.5,0.5-1.1,0.8-1.7c-0.2,0.4-0.5,0.8-0.6,1.2
		c-0.2,0.5-0.3,1.1-0.5,1.6c-0.2,0.5-0.3,1-0.5,1.6c-0.3,0.6-0.5,1.2-0.6,1.9c-0.1,0.6,0,1.2-0.1,1.9c-0.1,0.6-0.3,1.1-0.3,1.7
		c0,0.2,0.1,0.6,0.1,0.8c0,0.3-0.1,0.6-0.1,1c0,0.6,0.1,1.2,0.2,1.9c-1.1-1.9-0.9-3.8-0.5-5.9s0.6-4,1.1-6c0.9-4,2.7-8,5.4-11.3
		c2.1-2.8,4.9-4.9,8.6-4.3c1.4,0.3,2.9,0.9,3.8,2.1c1,1.3,0.9,3,0.4,4.5c-0.9,2.7-3.2,4.8-5.3,6.6c-0.9,0.8-1.9,1.5-2.9,2.1
		c-0.7,0.4-1.4,0.7-2.2,1l-1.2,0.4c-0.5,0.1-0.5,0.1-0.8,0.5c-0.3,0.7-0.1,1.4-0.3,2.1c-0.1,0.9-0.3,1.7-0.5,2.6
		c-0.3,1.6-0.9,3.8-0.5,5.5c0.8,3.5,6.5-1.9,7.5-2.9c0.7-0.6,1.3-1.3,1.9-1.9c0.3-0.4,0.8-0.8,1-1.2c0,0,0.1-0.3,0.1-0.5
		c0.8-1.3,1.9-2.5,3-3.8c1.2-1.4,2.3-3,3.5-4.5c0.6-0.9,2.1-3.4,3.2-1.6v0.1c0.1,0.1,0.1,0.1,0.1,0C235.2,65.6,235,66,234.7,66.4z
		 M217.1,68c2.2-1.2,4.2-2.7,5.8-4.6l1.2-1.5c0.2-0.3,0.5-0.5,0.7-1c0.1-0.3-0.1-0.6,0-1l0.3-1.4c0.1-0.7-0.2-2.5-1.2-2.3
		c-0.5,0.1-1,0.8-1.2,1.1l-1.2,1.6c-1.4,2.1-2.2,4.5-3.2,6.7c0,0,0,0.1-0.1,0.2C217.6,66.5,217.4,67.3,217.1,68z"/>
	<path class="st0" d="M269.4,70.9c-1.7,2.5-3.4,5-5.4,7.3c-1.3,1.7-3.7,4.9-6.1,5c-0.5,0.1-3.4-0.9-3.2-1.4l0.1,0.1
		c-0.1-0.1-0.1-0.2-0.2-0.3c0,0.1-1-0.8-1.1-1.2c-0.4-0.8-0.6-1.6-0.8-2.5c-0.2-1.4-0.2-2.7-0.2-4c0-1.4,0.2-2.7,0.7-4.1
		c0.1-0.3,1.3-4.1,1.7-4c0.1,0-0.2,0.5-0.1,0.6c0.2-0.7,0.5-1.4,0.8-2.1c-0.1,0.1-0.1,0.3-0.3,0.4c-0.1-0.1,1.9-4.7,2.2-5.5
		c-2.3,2.1-3.4,5.1-5.7,7.3c-1.4,1.4-2.5,4.2-3.7,6.1c-1,1.6-1.9,4.1-4,2c-0.6-0.5-1-1.3-1.1-2.1c-0.1-0.9,0.3-1.8,0.5-2.6
		c0.2-0.8,0-1,0.1-1.9c0.3-2.5,1.9-4.9,2.7-7.2c0.2-0.8,2.4-4.9,1.3-5c-0.1-0.1-1.2,1.4-1.4,1.6c-0.8,1-1.6,2-2.3,3
		c-2.3,3.5-3.7,7-5.6,10.6c-0.8,1.4-1.4,2.9-2.1,4.3c-0.3,0.7-0.8,1.3-1,2c0,0.2-0.1,0.8-0.1,0.9c-0.7,1.2-3.4-0.5-4-1.4
		c-1.4-1.7-0.9-3.3-1-5.2c-0.1-2.5,0.8-5,1.6-7.4c0.3-1.2,0.8-2.3,1.4-3.5c0.3-0.6,0.9-1.2,1.2-1.9c0.2-0.3-0.1-0.7,0.5-1
		c0.5-0.2,1.2,0.2,1.6,0.5c0.5,0.5,0.9,1.4,1.2,1.8c0.3,0.5,1,0.8,0.8,1.8c0,0.1-0.1,0.3-0.2,0.4c-0.4,0.7-1,1.3-1.5,2
		c-0.2,0.3-0.5,0.7-0.6,1c-0.1,0.5,0,0.7-0.1,1.2c-0.2,1-0.8,1.8-1,2.7c-0.1,0.6-0.4,1.4-0.4,2c0,0.7,0.3,1.2,0.1,2
		c1-1.6,1.5-3.7,2.5-5.5c1.1-2.2,2.2-4.5,3.5-6.7c1.1-1.7,2.4-3.4,3.5-5.1c0.9-1.4,2.4-3.5,4.2-3.7c2.5-0.3,4.4,2.7,3.8,4.9
		c-0.5,1.7-1.5,3.4-2.1,5.1c-0.8,2.4-1.5,4.9-2.2,7.3c0.8-1.7,1.9-3.4,3-5.1l-1.4,1.9c-0.1-0.5,5.6-7.9,6.3-8.6
		c1.9-1.8,5.8-3.7,6.8,0.1c0.9,3.3-0.8,7.1-2,10.1c-1.1,2.6-2.7,5.7-3.2,8.3c0.1-0.1,0.1-0.3,0.3-0.4c0,0-0.5,3.3,0.1,3.4
		c1.3,0.3,4-3.4,4.7-4.3c1.9-2.1,3.6-4.3,5.4-6.4c0.3-0.4,3.4-4.5,3.8-3c0.1,0.1,0,0.1,0,0.1C272.2,67.3,270.3,69.6,269.4,70.9z
		 M247.2,60.9L247.2,60.9c0.4-1,1.6-4.2,1.2-5.1c0.3,1.1-1.4,5.4-1.6,5.9c-0.7,1.6-1.5,3.2-2.1,4.8c-0.5,1.4-1,3.2-1,4.8
		c0.1-1.5,0.8-3.2,1.4-4.5c0.7-1.9,1.1-3.8,1.9-5.6C247,61.2,247.1,61.1,247.2,60.9L247.2,60.9L247.2,60.9z"/>
	<path class="st0" d="M291.5,68.1c-0.1,0-1,0.3-1,0.2c-0.7,0.3-0.5,0.2-1,0.8c-0.5,0.8-1,1.7-1.5,2.5c-0.3,0.3-2.7,3.9-3.2,3.7
		c0,0,0.5-0.7,0.5-0.8l-2,2.3c0.2-0.2,0.3-0.3,0.3-0.2c-0.4,1.2-2.7,2.5-3.7,3.3c-1.1,0.8-2.5,1.6-3.9,1.8c-1.4,0.1-2.9-0.1-4.2-0.8
		c-4-2-6.5-7.5-4.3-11.7c1.2-2.2,2-4.7,3.6-6.9c1-1.2,2-2.3,3.3-3.2c0.5-0.4,1.2-0.8,1.9-1c0.5-0.3,1.5-0.3,1.9-0.6
		c0.4-0.3,0.8-2.1,1.1-2.6c0.3-0.5,0.6-1.1,1-1.6c1-1.4,2.1-2.7,3.6-3.6c2.3-1.3,4.7,0,6.4,1.7c0,0,1.2,0.8,1.1,1.2l-0.3-0.3
		l0.3,0.5l0.1,0.1c-0.2-0.5,0.6,0.5,0.6,0.5c0.3,0.5,0.5,1.2,0.7,1.8c0.2,1,0.1,2,0,3c-0.3,2.5-1,5.1-1.8,7.6
		c2.1-0.3,4.1-0.8,6.1-1.2c0.5-0.1,1-0.5,1.3,0c0.1,0.1,0,0.1,0,0.1C300.3,67.5,292.3,68,291.5,68.1z M285.1,68.4
		c-3-0.4-6.7-1.7-7.5-5.1c-0.5,0.5-1.4,2.2-2.5,4.3l0.4-0.6c-0.1,0.7-6.7,12.8-1,11.9h0.1C279.4,77.9,283.1,72.3,285.1,68.4z
		 M288.4,52.9c-1.4-2.1-3.9,1-4.9,2.3c-0.1,0-0.1,0.1-0.1,0.1l-0.1,0.1v-0.1c-0.1,0.1-0.1,0.2-0.1,0.2c-0.3,0.5-0.8,0.9-1.2,1.6
		c0.1-0.1,0.8-1.3,0.9-1.1c0.2,0.4-1.1,2.6-1.3,3c-0.4,1.1-0.8,2.2-0.9,3.4c-0.1,1.2-0.3,2.5,0.7,3.3c0.5,0.5,1.4,0.6,2.2,0.7
		c0.4,0.1,1.3,0.2,1.7,0.1c0.7-0.1,0.5,0.1,0.8-0.6c1-1.7,1.4-4.3,1.9-6.2C288.4,58.1,289.4,54.7,288.4,52.9z M283.4,55.2
		L283.4,55.2C283.4,55.3,283.4,55.3,283.4,55.2z"/>
	<path class="st0" d="M320.8,66c0.3,2.2-3.2,4-4.6,5c-2,1.4-4,2.8-6.2,4c-0.5,0.3-1.4,0.5-1.9,1c-0.8,0.6-0.6,0.5-0.5,1.6
		c0.2,1.2,0.3,2.5,0.3,3.8c0.1,1.9-0.1,3.8-0.8,5.7c-1.6,4.3-4.9,7-9.7,6.9c-4.2-0.1-8.6-2.3-7.8-6.8c-0.1,0.1-0.3,1.3-0.3,1.2
		c-0.5-0.3,0-1.8,0.1-2.1c0.8-2.5,3-4.5,5.1-6.1c1.2-0.9,2.3-1.8,3.5-2.5c0.9-0.5,3-1.4,3.1-2.3c0.2-1-0.7-3-1-4
		c-0.3-1.3-0.8-2.7-0.9-4c-0.1-0.9,0.2-1.4,0-2.3c-0.3-1.1-0.7-2.1-0.8-3.3c-0.1-1.2-0.1-2.3,0.3-3.4c0.5-1.6,4.2-5.4,6-3.7
		c0-0.3,0.9,1,1,1.4c0,0.3-0.3,2.8-0.7,2.7c0,0,0.1-0.6,0.2-1.1c-0.3,1-0.9,1.9-1,2.9c-0.1,0.9,0.1,1.9,0.2,2.7c0-0.1,0-0.3,0.1-0.3
		c-0.1,0,0.7,3.6,1.3,6.5c-0.5-1.9-1.1-4-1.4-5.4c0.5,3,1.2,6,1.9,8.9c0.1-0.1,0.1-0.2,0.1-0.5c0.1,0.2,0.1,0.3,0.1,0.4
		c3-1.5,5.8-3,8.6-4.7c1.2-0.8,2.5-2.2,3.8-2.8C320.1,64.8,320.6,64.9,320.8,66L320.8,66z M296.1,89.4l1.9-0.8
		c0.1,0.1-0.5,0.5-0.5,0.5c0.8-0.5,1.5-1.1,2.1-1.9l-0.3,0.3c0.5-0.5,1.9-3.3,1.9-3.6c0.5-1.6,0.5-3.3,0.4-4.9
		c-0.1,0.1-0.3,0.2-0.5,0.3l0.5-0.4l-0.8,0.5c0.4-0.1-0.9,0.9-1.1,1l-2.1,1.4c-1.4,1-2.9,2-3.9,3.4c-0.6,0.9-2.4,3.7-0.6,4.3
		C294.1,89.8,295.2,89.6,296.1,89.4z M305.2,88c-2,2.8-5.5,4.5-8.9,4.7c1.9-0.1,3.6-0.4,5.4-1.2C303.5,90.7,304.5,89.5,305.2,88z
		 M306.3,70.1c0.2,0.8,0.3,1.4,0.4,1.9C306.6,71.6,306.5,70.8,306.3,70.1z M307.6,78.8c0,0.1,0,0.3,0.1,0.3
		C307.7,79.1,307.6,78.9,307.6,78.8z"/>
	<path class="st0" d="M366.1,68.3c-1,1.6-2.3,3.2-3.6,4.6c-2,2.1-4.9,5.6-8.1,5.8c-1.5,0.1-3.1-0.6-3.9-2c-1.4-2.6,0.1-5.9,1-8.3
		c-1.8,2.1-3.5,4.3-5.2,6.5c-0.5,0.6-5.7,5.9-6.4,5c0-0.1,0.6-0.3,0.5-0.4c-0.7,0.4-1.4,0.8-2.2,0.8c0.1,0.1,0.2,0.1,0.3,0.1
		c0.1,0.5-1.9-0.3-2.1-0.4c-0.8-0.7-1.1-1.8-1.3-2.7c-0.3-2.2,0-4.4,0.5-6.5c0.5-2.2,1.1-4.3,2.1-6.5c0.5-1.1,1.3-1.6,1.8-2.6
		c0.8-1.7,1.7-3.9,3.2-5.1c1.2-1.1,3.4-0.9,4.7,0.1s0.5,1.4,0,2.4c0.1-0.2,0.3-0.3,0.4-0.4c0.1,0-1.5,3.4-1.9,3.3
		c0,0,0.2-0.7,0.4-1.1c-0.9,1.6-1.7,3.2-2.5,4.9c0.1-0.2,0.3-0.3,0.4-0.3c-0.1-0.1-2.6,6.3-2.8,6.9c-0.3,1-1.5,4,0.3,3.4
		c2-0.5,3.9-3.3,5.1-4.7c1.6-1.9,3-3.8,4.5-5.9c1.5-2.3,3.3-6,6.8-5.1c3.1,0.9,0.8,4.2-0.2,6.1c0.1-0.1,0.3-0.3,0.3-0.3
		c0.4,0.5-1,3.1-1.2,3.8c-0.4,1.3-1,2.8-1,4.3c-0.1,1.6,0.4,1.2,1.5,0.3c2.3-1.9,4.3-4.2,6.2-6.3c0.1-0.1,3.3-3.8,3.5-2.5
		C367.6,66.1,366.5,67.6,366.1,68.3z M342.5,68.9c-0.8,1.9-2.2,4.6-1.8,6.6C340.6,74.9,341.6,71.6,342.5,68.9z M351.7,68.1
		c-0.2,0.1-0.3,0.3-0.3,0.6C351.5,68.6,351.6,68.4,351.7,68.1z M358.8,62.3c-0.7,1.7-2.7,3.9-2.2,5.6c0,0.1,0,0.1-0.1,0.2
		c0.1-0.1,0.1-0.1,0.1-0.2c0.2-0.3,0.3-0.9,0.4-1.3C357.5,65.2,358.2,63.8,358.8,62.3z"/>
	<path class="st0" d="M387.7,70.8c-1.5,1.9-2.9,4-4.5,5.8c-1.2,1.3-3.3,3.5-5.2,2.9c-0.4-0.1-3-1.5-2.9-1.9l0.2,0.1l-0.4-0.4
		c0.3,0.5-0.4-0.1-0.5-0.1c-0.3-0.3-0.6-0.9-0.8-1.3c-0.3-0.8-0.4-1.5-0.4-2.3s0.1-1.5,0.2-2.3c0.1-1.6,0.2-3,0.7-4.5
		c0.1-0.3,1.6-4.2,2.1-4c0.1,0-0.2,0.5-0.1,0.5l1-1.9c-0.1,0.1-0.2,0.3-0.3,0.3c-0.1-0.1,0.8-1.6,1-2c-1.4,1.6-2.5,3.2-3.7,4.9
		c-0.9,1.2-2,1.9-2.6,3c-1.4,2.5-3.2,4.7-4.4,7.3l-0.3-0.5c-1.2,1.5-3.1-0.3-3.8-1.4c-0.6-1.1-0.4-1.9-0.3-3.2
		c0.1-1.1,0.1-2.2,0.4-3.4c0.4-1.4,1-2.8,1.5-4.3c0.5-1.4,1-2.9,1.5-4.3c0.3-0.9,1-2,1.2-3c0.2-0.8,0-1.2,0.9-1.8
		c0.8-0.5,1.7-0.4,2.6-0.3c1.1,0.2,3.1,1.4,1.9,3.1c-0.5,0.6-1.3,1.3-1.9,2c-0.6,0.8-0.5,1.1-0.8,2c-0.1,0.5-0.7,1-1,1.6
		c-0.4,0.8-0.7,1.7-1,2.6c-0.1,0.5-0.1,1-0.1,1.5c-0.1,1.4-0.6,2.9-0.8,4.3c0.1-0.3,0.5-0.8,0.6-0.7c0.1,0.1-0.7,1.2-0.6,1.2l4-5.9
		c-0.9,1.2-1.6,2-1.6,2c-0.2-0.1,8-10.6,8.9-11.5c2-1.9,4.5-1.8,5.5,1.4c1.1,3.4-2.5,5.7-4.1,8.2c-0.9,1.4-1.6,3-2.3,4.5
		c-0.5,0.9-1.5,2.9-1.6,4.4c0.1-1,0.9-2.3,1.2-3c0.5-1.4,1.3-2.6,2.4-3.6c-0.5,0.9-1,1.7-1.4,2.5l0.3-0.4c0.1,0-0.6,2.3-0.7,2.5
		c-0.3,0.8-0.5,1.7-0.6,2.6c-0.1,0.1,0,1.2,0,1.2l0.1,0.1c0-0.1,0.5-0.1,0.6-0.2c1-0.3,2.1-1.3,2.9-2c1.6-1.3,3.2-2.7,4.8-4.1
		c1.2-1.1,2.7-2.2,3.6-3.4c0.4-0.6,1.4-1.7,1.7-0.1C391.2,67.3,388.6,69.7,387.7,70.8z"/>
	<path class="st0" d="M429.7,71.6c-1.9,3.2-5.6,6-9.1,6.9c-0.4,0.1-1.9,0.1-2.3,0.4c-0.4,0.3-0.5,2.6-0.5,3.2
		c-0.2,1-0.4,1.9-0.7,2.9c-1.1,3.8-2,8.3-4.2,11.7c-1.9,3-5.3,4.9-8.5,2.5c-2.8-2.1-2.8-6.8-2.6-10c0.4-7.7,3.4-14.7,5.5-21.9
		c1.9-6.8,5.1-13.2,8.4-19.5c1.8-3.5,3.8-7.1,6-10.4c1.6-2.3,4.3-6.9,7.5-7.2c6.2-0.7,4.3,8.7,3,11.9c-2.5,6-6.2,11.7-10.2,16.9
		c-2.4,3.1-4.9,6.1-7.5,9.1c-0.8,0.9-1.6,1.9-2.5,2.7c-0.7,0.8-0.8,1-1.2,2.1c-0.3,1-0.7,2-1,3c-1.3,3.8-2.5,7.5-3.4,11.5
		c-0.6,2.7-1.6,6-1,8.8l-0.3-0.2L405,96c2.6,4.9,6.9-4.7,7.8-6.7c1.2-2.9,2.2-5.8,2.8-8.9c0.1-0.7,0.5-1.7,0.3-2.4
		c-0.1-0.8-0.8-1.6-1-2.5c-0.3-1.5-0.3-3.3,0-4.9c0.4-1.6,1.7-2.9,2.9-1c0.4,0.8,0.5,1.8,0.7,2.7c0.1,0.7-0.2,2.1,0.1,2.7
		c0.4,1,2.1,0.4,2.9,0c3.3-1.3,5.9-4.3,8.2-6.9c0.3-0.4,3.2-4.9,3.8-3.2v0.1C434.1,67.5,430.8,69.9,429.7,71.6z M404.2,93.5
		c0-2.4,1-5.6,1.3-6.9c0.3-1.6,0.7-3.2,1.2-4.7c-0.3,0.9-0.6,1.9-0.9,2.8C404.9,87.3,403.9,90.5,404.2,93.5z M413.4,65.4
		c4.3-4.9,8.3-10.1,11.6-15.6c1-1.6,7.5-14.7,4.9-15.4c-0.9-0.3-1.7,1.1-2.2,1.7c-1.9,2.4-3.2,5.1-4.7,7.8
		c-2.9,5.4-5.4,11.1-7.8,16.8c0.1-0.1,0,0.2-0.4,1.1v-0.1c0,0.1-0.1,0.1-0.1,0.2L413.4,65.4z M415.3,60.7l-0.2,0.5
		C415.2,61,415.3,60.7,415.3,60.7z"/>
	<path class="st0" d="M459.5,68.3c-1,1.6-2.3,3.2-3.6,4.6c-2,2.1-4.9,5.6-8.1,5.8c-1.5,0.1-3.1-0.6-3.9-2c-1.4-2.6,0.1-5.9,1-8.3
		c-1.8,2.1-3.5,4.3-5.2,6.5c-0.5,0.6-5.7,5.9-6.4,5c0-0.1,0.6-0.3,0.5-0.4c-0.7,0.4-1.4,0.8-2.2,0.8c0.1,0.1,0.2,0.1,0.3,0.1
		c0.1,0.5-1.9-0.3-2.1-0.4c-0.8-0.7-1.1-1.8-1.3-2.7c-0.3-2.2,0-4.4,0.5-6.5c0.5-2.2,1.1-4.3,2.1-6.5c0.5-1.1,1.3-1.6,1.8-2.6
		c0.8-1.7,1.7-3.9,3.2-5.1c1.2-1.1,3.4-0.9,4.7,0.1s0.5,1.4,0,2.4c0.1-0.2,0.3-0.3,0.4-0.4c0.1,0-1.5,3.4-1.9,3.3
		c0,0,0.2-0.7,0.4-1.1c-0.9,1.6-1.7,3.2-2.5,4.9c0.1-0.2,0.3-0.3,0.4-0.3c-0.1-0.1-2.6,6.3-2.8,6.9c-0.3,1-1.5,4,0.3,3.4
		c2-0.5,3.9-3.3,5.1-4.7c1.6-1.9,3-3.8,4.5-5.9c1.5-2.3,3.3-6,6.8-5.1c3.1,0.9,0.8,4.2-0.2,6.1c0.1-0.1,0.3-0.3,0.3-0.3
		c0.4,0.5-1,3.1-1.2,3.8c-0.4,1.3-1,2.8-1,4.3c-0.1,1.6,0.4,1.2,1.5,0.3c2.3-1.9,4.3-4.2,6.2-6.3c0.1-0.1,3.3-3.8,3.5-2.5
		C461.1,66.1,460,67.6,459.5,68.3z M436,68.9c-0.8,1.9-2.2,4.6-1.8,6.6C434.1,74.9,435,71.6,436,68.9z M445.2,68.1
		c-0.2,0.1-0.3,0.3-0.3,0.6C445,68.6,445.1,68.4,445.2,68.1z M452.3,62.3c-0.7,1.7-2.7,3.9-2.2,5.6c0,0.1,0,0.1-0.1,0.2
		c0.1-0.1,0.1-0.1,0.1-0.2c0.2-0.3,0.3-0.9,0.4-1.3C451,65.2,451.7,63.8,452.3,62.3z"/>
	<path class="st0" d="M483.8,46.4c0.1,1-1.1,1.7-1.9,1.9c-0.9,0.3-1.9-0.3-2.7-0.1c-0.5,0.1-0.3,0.3-0.8,0.5c-0.6,0.2-1.4,0.1-2,0.1
		c-0.9,0-2.8-0.5-3.6,0c-0.1,0.1-0.3,0.2-0.4,0.4l0.2-0.4c-0.4,0.1-1.1,1.9-1.6,3.2l0.8-1.5l-1,2.6c-0.7,1.4-1.3,3-1.9,4.4
		c-1.2,2.9-2.3,5.7-3.4,8.6c-1.9,5.4-3.7,11-4.9,16.5c-0.2,1-1.4,4.9-0.1,5.5c0.2,0.1,1.6-0.7,1.6-0.6c0.3-0.3,0.8-0.7,1.1-1.1
		c-0.3,0.2-1,0.8-1,0.7c-0.1-0.4,1.6-1.8,1.9-2.1c0.7-0.7,1.3-1.4,1.9-2.1l4-4.9c2.5-3.1,4.8-6.2,7.3-9.3c0.5-0.7,1.8-3.1,2.7-3.3
		c1.1-0.2,1.3,0.9,1,1.8c-0.6,1.9-2.5,3.4-3.4,5c-1.7,2.9-3.8,5.6-5.8,8.3c-2.2,3-4.4,5.9-6.8,8.7c-1.1,1.4-2.5,3.3-4.3,4.1
		c-1.3,0.6-3-0.1-4.1-1c-1.2-0.8-1.9-2.1-2.2-3.4c-0.1-0.4-0.5-2.6-0.1-3.1v1l0.1-1.4c-0.1,0.3-0.1-0.6-0.1-0.8
		c0-0.5,0.1-1.2,0.3-1.7c0.1-1.1,0.4-2.1,0.7-3.2c0.5-2.1,1-4.3,1.4-6.5c0.3-2.2,1.1-4.3,1.8-6.3c0.1-0.3,1.5-4.5,1.9-4.5
		c0.1,0-0.1,0.8-0.1,0.9c0.3-1,0.7-2.1,1-3.1c-0.1,0.3-0.3,0.7-0.3,0.5c0-0.8,0.9-2.3,1.2-3l0.8-2.4c0.8-2.2,1.5-4.4,2.5-6.5
		c-1.9,0.1-3.8,0-5.6,0.3c-2.6,0.5-5.9,0.2-8.5-0.1c-0.3-0.1-2-0.1-1.6-0.9c0.1-0.2,1.6-0.5,1.9-0.6c1.3-0.5,2.7-0.5,4-0.5
		c2.7-0.3,5.3-0.1,8-0.5c0.7-0.1,1.9,0.1,2.5-0.1c0.6-0.2,0.6-0.7,0.9-1.3c0.5-1.2,1-2.5,1.6-3.6c0.6-1.3,1.2-2.7,2-3.8
		c0.5-0.8,1.1-1,1.5-1.8c0.8-1.9,1.8-3.7,3.1-5.3c1.4-1.8,3.8-2.1,5.9-1.6c1,0.2,2.5,0.8,2,2.2c-0.2,0.5-0.9,0.9-1.3,1.3
		c0,0.1,0.6-0.6,0.6-0.3c-0.1,0.5-2.6,4-2.8,3.9c-0.1,0,1-1.7,1-1.9c-2.6,3.8-4.8,8-6.9,12.2c0.2,0,0.4-0.3,0.7-0.8
		c-0.2,0.4-0.3,0.7-0.3,0.8c2.7-0.1,5.4-0.1,8.2-0.3C482.7,46.1,483.8,45.4,483.8,46.4L483.8,46.4z M459.3,88.6
		c0.1,0.1,0.1,0.1,0.2,0.1L459.3,88.6z M479.7,33.1c-5.5,7.8-8.9,17-12.8,25.5c-2.3,5-4.2,10.2-5.7,15.5c-0.7,2.4-1.2,4.8-1.7,7.3
		l0.3-1.3c0.8-3.2,1.9-6.5,3-9.5c2.5-6.8,4.8-13.8,7.9-20.3C473.5,44.5,476,38.4,479.7,33.1z M468.3,58.2c-0.6,1.4-1.1,2.7-1.6,4
		c0.5-1.2,1.1-2.5,1.6-3.8C468.3,58.4,468.3,58.3,468.3,58.2z M475.1,44l-0.7,1.5C474.6,45.1,474.9,44.5,475.1,44z M477,40.4
		l-1.6,3.2C476,41.9,476.6,40.4,477,40.4z"/>
	<path class="st0" d="M508.1,68.3c-1,1.6-2.3,3.2-3.6,4.6c-2,2.1-4.9,5.6-8.1,5.8c-1.5,0.1-3.1-0.6-3.9-2c-1.4-2.6,0.1-5.9,1-8.3
		c-1.8,2.1-3.5,4.3-5.2,6.5c-0.5,0.6-5.7,5.9-6.4,5c0-0.1,0.6-0.3,0.5-0.4c-0.7,0.4-1.4,0.8-2.2,0.8c0.1,0.1,0.2,0.1,0.3,0.1
		c0.1,0.5-1.9-0.3-2.1-0.4c-0.8-0.7-1.1-1.8-1.3-2.7c-0.3-2.2,0-4.4,0.5-6.5c0.5-2.2,1.1-4.3,2.1-6.5c0.5-1.1,1.3-1.6,1.8-2.6
		c0.8-1.7,1.7-3.9,3.2-5.1c1.2-1.1,3.4-0.9,4.7,0.1s0.5,1.4,0,2.4c0.1-0.2,0.3-0.3,0.4-0.4c0.1,0-1.5,3.4-1.9,3.3
		c0,0,0.2-0.7,0.4-1.1c-0.9,1.6-1.7,3.2-2.5,4.9c0.1-0.2,0.3-0.3,0.4-0.3c-0.1-0.1-2.6,6.3-2.8,6.9c-0.3,1-1.5,4,0.3,3.4
		c2-0.5,3.9-3.3,5.1-4.7c1.6-1.9,3-3.8,4.5-5.9c1.5-2.3,3.3-6,6.8-5.1c3.1,0.9,0.8,4.2-0.2,6.1c0.1-0.1,0.3-0.3,0.3-0.3
		c0.4,0.5-1,3.1-1.2,3.8c-0.4,1.3-1,2.8-1,4.3c-0.1,1.6,0.4,1.2,1.5,0.3c2.3-1.9,4.3-4.2,6.2-6.3c0.1-0.1,3.3-3.8,3.5-2.5
		C509.6,66.1,508.5,67.6,508.1,68.3z M484.5,68.9c-0.8,1.9-2.2,4.6-1.8,6.6C482.6,74.9,483.6,71.6,484.5,68.9z M493.7,68.1
		c-0.2,0.1-0.3,0.3-0.3,0.6C493.5,68.6,493.6,68.4,493.7,68.1z M500.8,62.3c-0.7,1.7-2.7,3.9-2.2,5.6c0,0.1,0,0.1-0.1,0.2
		c0.1-0.1,0.1-0.1,0.1-0.2c0.2-0.3,0.3-0.9,0.4-1.3C499.6,65.2,500.2,63.8,500.8,62.3z"/>
	<path class="st0" d="M531.7,68.3c-0.5,1.2-1.2,2.3-2,3.4c-1.6,2.3-3.3,4.7-4.9,7c-1.6,2.3-3.4,4.5-5.6,6.4
		c-0.4,0.3-3.6,2.8-3.8,2.7c0-0.1,0.1-0.1,0.1-0.2l-0.5,0.2c0.3-0.1-1,0.8-1.3,1c-1,0.2-2-0.1-2.8-0.6c-0.9-0.5-1.4-1.4-1.8-2.3
		c-0.7-1.5-0.8-3-0.5-4.6c0.1-0.3,1-4.3,1.5-4.3c0.1,0-0.1,0.5-0.1,0.6l0.5-1.7c-0.2-0.1,3.4-7.8,3.8-8.2c-2.1,0.4-4.7,0.3-6.1-1.4
		c-0.4-0.5-0.3-1-0.4-1.4c-0.2-0.5-0.5-0.8-0.6-1.3c-0.7-3.4,3.2-8,6.5-5.8l-0.1-0.2c0.1-0.4,0.9,0.6,1,1c0,0.3-0.5,2.2-0.9,2.1
		c-0.1,0,0.4-1.2,0.4-1.3c-0.5,1.3-1.9,2.7-2.1,4.1c-0.1,1,0.4,1,1.3,1.2c1.3,0.3,3.4,0.1,5,0.6c-1.1-0.3-2.4-0.4-3.3-0.5
		c0,0-0.1,0-0.1-0.1c1,0.1,2.1,0.1,3,0.3c2,0.5,3.2,1.2,2.4,3.4c-0.8,2-1.9,4-2.7,6c-0.8,1.9-1.5,4-2.3,6c-0.2,0.7-1.7,3.6-1.2,4.3
		c0.7,0.8,4.5-2.6,5.5-3.7c-0.2,0.2-0.4,0.2-0.5,0.3c-0.1,0,1.4-1.9,1.6-2.2l2-2.5l3.7-4.9l3.8-5.1c0.3-0.4,2-2.8,2.4-1
		C532.8,66.3,532.2,67.5,531.7,68.3z M510.5,86.8c-0.1-0.1-0.1-0.1-0.1-0.2l0.1,0.1c-0.3-0.8-0.7-1.5-0.8-1.9l0.2,0.9l-0.3-1.4v-0.1
		c-0.1-0.1-0.1-0.2-0.1-0.2s0,0.1,0.1,0.1v-0.3c-0.1-1,0-1.9,0.1-2.7v-0.1c-0.1,0.6-0.2,1.2-0.2,1.9c-0.1,0.8,0,1.8,0.2,2.6
		c0.1,0.2,0.6,1.4,1,1.9c0-0.1,0-0.1-0.1-0.1c0.4,0.4,1,0.8,1.6,1C511.4,87.8,510.9,87.3,510.5,86.8L510.5,86.8z M509.6,80.8
		L509.6,80.8c0,0,0.1-0.1,0.1-0.1C509.7,80.8,509.6,80.8,509.6,80.8z M509.9,79.5c0,0.1-0.1,0.2-0.1,0.3
		C509.8,79.7,509.9,79.7,509.9,79.5z M510,79.5c0.5-1.8,1.2-3.5,1.9-5.1l1.3-3c0.3-0.6,1.8-4,2.1-4.2c-0.5,0.1-1.4,2.6-1.6,2.8
		c-0.6,1.2-1.2,2.3-1.6,3.6C511.3,75.5,510.5,77.5,510,79.5z M510.1,86.3c0-0.1-0.1-0.1-0.1-0.1C510.1,86.2,510.1,86.2,510.1,86.3z
		 M512.1,63.5C512.1,63.5,512.1,63.4,512.1,63.5L512.1,63.5z M512.1,63.5c0.1,0.1,0.5,0.5,0.5,0.5c0.3,0.3,0.8,0.4,1.4,0.5
		c-0.6-0.1-1.2-0.1-1.6-0.4C512.3,64,512.1,63.7,512.1,63.5z M519.6,69.4l-1.4,3.1L519.6,69.4L519.6,69.4z M519.6,69.3L519.6,69.3
		L519.6,69.3L519.6,69.3z M519.6,69.3L519.6,69.3L519.6,69.3L519.6,69.3z"/>
	<path class="st0" d="M552.4,68.1c-0.1,0-1,0.3-1,0.2c-0.7,0.3-0.5,0.2-1,0.8c-0.5,0.8-1,1.7-1.5,2.5c-0.3,0.3-2.7,3.9-3.2,3.7
		c0,0,0.5-0.7,0.5-0.8l-2,2.3c0.2-0.2,0.3-0.3,0.3-0.2c-0.4,1.2-2.7,2.5-3.7,3.3c-1.1,0.8-2.5,1.6-3.9,1.8c-1.4,0.1-2.9-0.1-4.2-0.8
		c-4-2-6.5-7.5-4.3-11.7c1.2-2.2,2-4.7,3.6-6.9c1-1.2,2-2.3,3.3-3.2c0.5-0.4,1.2-0.8,1.9-1c0.5-0.3,1.5-0.3,1.9-0.6
		c0.4-0.3,0.8-2.1,1.1-2.6c0.3-0.5,0.6-1.1,1-1.6c1-1.4,2.1-2.7,3.6-3.6c2.3-1.3,4.7,0,6.4,1.7c0,0,1.2,0.8,1.1,1.2l-0.3-0.3
		l0.3,0.5l0.1,0.1c-0.2-0.5,0.6,0.5,0.6,0.5c0.3,0.5,0.5,1.2,0.7,1.8c0.2,1,0.1,2,0,3c-0.3,2.5-1,5.1-1.8,7.6
		c2.1-0.3,4.1-0.8,6.1-1.2c0.5-0.1,1-0.5,1.3,0c0.1,0.1,0,0.1,0,0.1C561.2,67.5,553.2,68,552.4,68.1z M546,68.4
		c-3-0.4-6.7-1.7-7.5-5.1c-0.5,0.5-1.4,2.2-2.5,4.3l0.4-0.6c-0.1,0.7-6.7,12.8-1,11.9h0.1C540.3,77.9,544,72.3,546,68.4z
		 M549.2,52.9c-1.4-2.1-3.9,1-4.9,2.3c-0.1,0-0.1,0.1-0.1,0.1l-0.1,0.1v-0.1c-0.1,0.1-0.1,0.2-0.1,0.2c-0.3,0.5-0.8,0.9-1.2,1.6
		c0.1-0.1,0.8-1.3,0.9-1.1c0.2,0.4-1.1,2.6-1.3,3c-0.4,1.1-0.8,2.2-0.9,3.4c-0.1,1.2-0.3,2.5,0.7,3.3c0.5,0.5,1.4,0.6,2.2,0.7
		c0.4,0.1,1.3,0.2,1.7,0.1c0.7-0.1,0.5,0.1,0.8-0.6c1-1.7,1.4-4.3,1.9-6.2C549.3,58.1,550.3,54.7,549.2,52.9z M544.3,55.2
		L544.3,55.2C544.2,55.3,544.3,55.3,544.3,55.2z"/>
	<path class="st0" d="M94.8,143.9c-0.4,1.5-1.3,2.9-2.1,4.3c-2.1,3.3-3.8,6.8-6.1,10.1c-2.5,3.6-5.1,7.2-8.3,10.3
		c-2.7,2.5-6.4,4.5-9.6,1.6c-2.9-2.7-2.9-7.5-2.7-11.1c0.3-3.8,1.3-7.5,2.2-11.3c0.1-0.1,0-1.8,0.3-2.3c-0.1,0.1-0.1,0.6-0.1,1
		c0.1-0.5,0.3-1,0.5-1.4h-0.2c-0.2-1.4,0.8-3.5,1.2-4.8c0.5-1.6,1-3.2,1.6-4.8c1-3,2.1-5.8,3.1-8.8c0.9-3,2.3-5.8,3.6-8.5
		c0.6-1.3,1.3-2.6,2.1-3.9c0.2-0.3,1.7-3.3,2.1-3.2l-0.5,1.2l2.2-3.8l-0.1,0.1c0.3-0.5,0.8-1.6,1.2-2l1.6-2.1c1-1.2,2.1-2.8,3.7-3.3
		c3-1,5.5,2.2,5.9,4.9l0.1,0.1v0.3c0.4,4.2-2.1,9.1-3.9,12.7c-1.1,2.2-2.3,4.9-4,6.7c-1.2,1.3-1.8,2.7-2.7,4.3
		c-2.6,4.2-5.4,8.4-8.5,12.2c-0.8,1-1.2,1.6-1.6,2.8c-0.4,1.3-0.8,2.6-1.1,4c-0.4,1.4-0.8,2.7-1.1,4.1c-0.1,0.6-0.8,2.5-0.7,2.7
		c-0.2,0.8-0.3,1.7-0.4,2.5l0.5-2.1c0.3,0.5-0.2,2.6-0.3,3.2c-0.1,1-0.2,2.1-0.2,3.2c0,1.3,0,4.3,1.7,4.5c2.3,0.3,4.8-3.2,6-4.7
		c2.8-3.4,5.1-7.1,7.5-10.8c1.2-1.9,2.4-3.8,3.6-5.8c0.8-1.2,1.4-3,2.3-4C95,140.2,95.1,142.8,94.8,143.9z M69.6,147.8
		c-0.3,0-0.6,1.4-0.8,3v-0.1c-0.5,2.4-0.8,4.9-0.9,7.4l0.2-2.2v0.2c0-0.5,0.1-0.9,0.2-1.4c0.4-2.1,0.5-4.7,1.3-6.6
		c0,0,0-0.1,0.1-0.2C69.7,147.9,69.7,147.7,69.6,147.8z M78.3,136c5.1-8.2,10.8-16.7,13.9-25.9c-1.2,3.3-2.9,6.5-4.5,9.5
		c-1,1.7-1.9,3.4-2.9,5.1c-0.6,1-1.9,2.6-2.3,3.7c0.5-1.8,2.2-3.8,3.2-5.5l2.9-5.4c1.6-3.3,4.1-7.3,4.3-11.2v-0.1
		c0.1-3.6-3,0.5-3.4,1.2c-1.9,3.1-3.3,6.5-4.7,9.7C82.3,123.4,80.3,130,78.3,136z M80.5,116.8c-0.1,0.1-0.1,0.2-0.1,0.3
		c1.5-2.7,3.3-5.4,4.7-8.2c-0.7,1.2-1.9,2.3-2.6,3.6C81.8,113.9,81.2,115.3,80.5,116.8z"/>
	<path class="st0" d="M123.2,147.3c-0.9,2.1-1.9,3.9-3,5.8c-1.3,2.1-2.6,4-4.1,5.8c-1.2,1.6-3,3.6-5,3.9c-2.3,0.4-4.2-1.5-4.9-3.6
		c-1.6-4-0.5-8.3,0.8-12.2c0,0,0-0.6,0.1-1.1c-0.7,1-1.6,2.3-2.3,3.2c-0.8,1.3-1.4,2.6-2.3,3.8c-0.4,0.6-6,7.4-6.8,6.2
		c0,0,0.8-0.3,0.8-0.5c-0.8,0.5-1.9,0.7-2.9,0.4c0.2,0.1,0.3,0.2,0.3,0.2c-1.6,0.2-2.8-2.3-3.2-3.4c-0.5-1.9-0.4-4-0.1-6
		c0.8-4,2.4-8.3,4.7-11.7c0.6-0.8,1.2-1.8,2.1-2.4c0.5-0.5,1-0.5,1.6-1c1-0.9,1.9-1.6,3.4-1.6c3.4,0,4.7,3.8,5.4,6.5
		c1.6-2.1,4.6-4.9,7.1-1.9c1.4,1.6,0.5,2.9-0.3,4.4c-1.3,2.4-2.3,5.4-2.9,7.8c0.1-0.2,0.3-1.2,0.5-1.3c0.5-0.1-4.4,15.4,2.7,6.7
		c2.1-2.7,4-5.5,5.8-8.3c0.8-1.3,1.6-2.7,2.5-4c0.4-0.5,1.6-1.9,1.7-0.3C125.3,144.4,123.8,146,123.2,147.3z M105.8,142.2
		c0-0.5-1.4-4.3-1-4.6c0.1-0.1,0.7,1.9,0.8,2.1c-0.2-0.8-0.5-3.4-1.7-3.4c-2.3,0-4,4.2-4.7,5.8c-1.4,3.1-2.6,6.4-3.2,9.7
		c0.2-1,4.2-13.5,5.4-13.4c-1,0.2-4.6,10.8-4.8,11.7c-0.1,0.5-1.2,4.1-0.2,4.5c0.7,0.2,2.3-1.9,2.7-2.4c1.3-1.6,2.5-3.2,3.7-4.9
		l1.8-2.5c0.3-0.5,0.6-1,1-1.4C105.8,142.8,105.8,142.8,105.8,142.2z M106,141.7v0.7C106.2,142.2,106.2,142,106,141.7z M107.6,145
		l-0.3,0.5c-0.1,0.2-0.3,1.2-0.3,1.2L107.6,145z"/>
	<path class="st0" d="M154.6,144l-0.4,0.2c-0.1-0.1-0.3-0.1-0.3,0.1c0.2,0.2,0.2,0.3,0.1,0.5c-0.8,1-2.3,1.3-3.2,2.2
		c-0.5,0.5-0.5,0.8-1.1,1.3c-0.2,0.2-0.5,0.2-0.8,0.3c-0.5,0.3-1.3,1-1.7,1.4c-1.2,1.4-2.5,2.8-3.6,4.5c-2,2.9-7.7,10-11.4,5.5
		c-2.1-2.5,1-3.2,2.4-4.5c1.1-1.1,2-2.4,3.2-3.5c0.3-0.2,1.6-1.9,1.8-2.3l0.2-0.3c-0.4,0.5,0-0.6,0-0.7c0.1-0.5,0.6-1.2,0.9-1.7
		c0.5-0.9,1-1.9,1.1-2.9c0.1-0.7,0.2-2.1-0.7-2.3c-0.3,0-2.7,0.9-2.7,0.9c-0.1-0.1,0.3-0.3,0.3-0.4c-0.5,0.3-0.8,0.6-1.2,1
		c0.1-0.1,0.1-0.1,0.2-0.1c-0.5,0.3-5,6.2-5.4,6.7c-0.8,1.4-1.4,3-2.5,4.1c-0.2,0.1-0.3,0.2-0.5,0.1c-0.3,0.2-0.3,0.5-0.3,0.8
		c-0.3,0.5-0.5,1.1-0.8,1.6c-0.6,1.2-0.9,3.1-1.6,4.2c-0.8,1.4-2.4,1-3.6,0.1c-0.6-0.4-1.1-1-1.4-1.6c0,0-0.4-1-0.3-1
		c-0.1-0.3-0.3-0.5-0.3-0.8c0.1,0.4,0.1,0.7,0.1,0.6c-1.2-0.5-0.6-5.4-0.5-6.2c0.3-3.6,1-7.2,1.9-10.8c1.4-6,3.4-12,5.8-17.8
		c2.1-5,4.1-10.1,6.8-14.8c1.4-2.7,3.1-5.4,5-7.8c1.6-2,4-4.6,6.9-4.5c5.6,0.3,5.6,8.1,4.7,12c0,0,0.1,1.4-0.3,1.7
		c0.1-0.1,0.2-1.4,0.2-1.4l-0.4,1.6c0.1-0.1,0.1-0.1,0.2,0c0.2,1-0.8,2.7-1.1,3.5c-0.5,1.2-1.1,2.3-1.8,3.4c-1,1.9-2.3,3.8-3.4,5.7
		c-1.2,2.1-2.8,4-4.5,5.7c-0.3,0.4-4.2,4.5-4.7,4.1c0,0,0.7-0.7,0.7-0.8c-0.9,0.8-1.8,1.6-2.7,2.3c0.3-0.1,0.5-0.3,0.5-0.3
		c-0.8,1.2-2.9,1.4-3.6,2.6c-0.9,1.5-1.1,4-1.4,5.8c-0.8,3.6-1.5,7.3-2.1,11l0.1-0.3l-0.3,1.1c1.1-2.2,2.5-4.3,4-6.2
		c-0.7,0.8-1.5,1.6-2.3,2.6c1.4-2,2.9-3.9,4.5-5.7c1.9-2.1,4.2-4.7,6.9-5.9c1-0.4,1.9-0.7,3-0.3c2.7,0.8,3,3.6,3.2,5.8
		c0-0.2,0-0.4,0.1-0.6c0.2-0.1,0.2,3.6,0.1,3.9c1.9-1.2,3.8-2.4,5.6-3.8c0.8-0.6,2.1-2.5,2.9-1.3h0.1v0.1
		C155.4,143.2,154.9,143.5,154.6,144z M128.7,150.5l-1.4,2.4C127.6,152,128.2,151.2,128.7,150.5z M127.7,125.8
		c1.8-4.7,3.8-9.5,6.5-13.9c1.7-3,3.4-5.8,5.4-8.6c1.4-2,3.1-4.1,5.5-4.9c-2.5,0.8-4.5,3-5.8,4.9c-2.1,2.7-3.8,5.6-5.4,8.6
		C131.4,116.3,129.4,121.1,127.7,125.8z M132.2,130.3l0.3-1.2l-0.9,2.8v0.1c-0.1,0.1-0.1,0.1-0.1,0.2c0,0.1-0.1,0.2-0.1,0.3
		l-0.1,0.1v0.1C131.8,132.4,132,130.9,132.2,130.3z M131.5,132.5L131.5,132.5l-0.1,0.2C131.4,132.7,131.5,132.6,131.5,132.5z
		 M146.6,99.5c0.2-0.1,0.7-0.3,0.8-0.1c-0.1-0.2-2.8,2.8-3.5,3.6l0.9-1.6c-1.8,2.3-3,4.8-4.2,7.3c0.1-0.2,0.3-0.3,0.4-0.4
		c-0.5,0.5-4.5,10.9-4.9,11.9c-1.6,4-3,8.2-4.3,12.3c3.1-2.5,6-5.1,8.5-8.2c1.9-2.4,3.9-5.1,5.7-7.4c0.9-1.2,1.4-3.4,1.9-4.8
		c0.7-1.9,1.2-3.8,1.3-5.8c0.1-1.2,0.3-7-1.9-7C147,99.3,146.8,99.3,146.6,99.5z M132.9,145.4C132.9,145.4,133,145.4,132.9,145.4
		L132.9,145.4z M142.4,144c-0.5,2.2-2.1,5-2.6,5.8c-1.2,1.6-2.3,3.2-3.6,4.8c-0.9,1-1.6,2.1-2.5,2.6c1.7-1,3.4-3,4.6-4.5
		C140,150.1,141.9,147.1,142.4,144z M137.8,114.9c-1.2,2.8-2.3,5.7-3.4,8.6L137.8,114.9z"/>
	<path class="st0" d="M174.9,145.5c-0.1,0-1,0.3-1,0.2c-0.7,0.3-0.5,0.2-1,0.8c-0.5,0.8-1,1.7-1.5,2.5c-0.3,0.3-2.7,3.9-3.2,3.7
		c0,0,0.5-0.7,0.5-0.8l-2,2.3c0.2-0.2,0.3-0.3,0.3-0.2c-0.4,1.2-2.7,2.5-3.7,3.3c-1.1,0.8-2.5,1.6-3.9,1.8c-1.4,0.1-2.9-0.1-4.2-0.8
		c-4-2-6.5-7.5-4.3-11.7c1.2-2.2,2-4.7,3.6-6.9c1-1.2,2-2.3,3.3-3.2c0.5-0.4,1.2-0.8,1.9-1c0.5-0.3,1.5-0.3,1.9-0.6
		c0.4-0.3,0.8-2.1,1.1-2.6s0.6-1.1,1-1.6c1-1.4,2.1-2.7,3.6-3.6c2.3-1.3,4.7,0,6.4,1.7c0,0,1.2,0.8,1.1,1.2l-0.3-0.3l0.3,0.5
		l0.1,0.1c-0.2-0.5,0.6,0.5,0.6,0.5c0.3,0.5,0.5,1.2,0.7,1.8c0.2,1,0.1,2,0,3c-0.3,2.5-1,5.1-1.8,7.6c2.1-0.3,4.1-0.8,6.1-1.2
		c0.5-0.1,1-0.5,1.3,0c0.1,0.1,0,0.1,0,0.1C183.7,144.8,175.7,145.4,174.9,145.5z M168.5,145.7c-3-0.4-6.7-1.7-7.5-5.1
		c-0.5,0.5-1.4,2.2-2.5,4.3l0.4-0.6c-0.1,0.7-6.7,12.8-1,11.9h0.1C162.8,155.3,166.5,149.7,168.5,145.7z M171.8,130.3
		c-1.4-2.1-3.9,1-4.9,2.3c-0.1,0-0.1,0.1-0.1,0.1l-0.1,0.1v-0.1c-0.1,0.1-0.1,0.2-0.1,0.2c-0.3,0.5-0.8,0.9-1.2,1.6
		c0.1-0.1,0.8-1.3,0.9-1.1c0.2,0.4-1.1,2.6-1.3,3c-0.4,1.1-0.8,2.2-0.9,3.4s-0.3,2.5,0.7,3.3c0.5,0.5,1.4,0.6,2.2,0.7
		c0.4,0.1,1.3,0.2,1.7,0.1c0.7-0.1,0.5,0.1,0.8-0.6c1-1.7,1.4-4.3,1.9-6.2C171.8,135.4,172.8,132.1,171.8,130.3z M166.8,132.6
		L166.8,132.6C166.7,132.7,166.8,132.7,166.8,132.6z"/>
	<path class="st0" d="M204.2,145.7c-0.5,1.2-1.2,2.3-2,3.4c-1.6,2.3-3.3,4.7-4.9,7c-1.6,2.3-3.4,4.5-5.6,6.4
		c-0.4,0.3-3.6,2.8-3.8,2.7c0-0.1,0.1-0.1,0.1-0.2l-0.5,0.2c0.3-0.1-1,0.8-1.3,1c-1,0.2-2-0.1-2.8-0.6c-0.9-0.5-1.4-1.4-1.8-2.3
		c-0.7-1.5-0.8-3-0.5-4.6c0.1-0.3,1-4.3,1.5-4.3c0.1,0-0.1,0.5-0.1,0.6l0.5-1.7c-0.2-0.1,3.4-7.8,3.8-8.2c-2.1,0.4-4.7,0.3-6.1-1.4
		c-0.4-0.5-0.3-1-0.4-1.4c-0.2-0.5-0.5-0.8-0.6-1.3c-0.7-3.4,3.2-8,6.5-5.8l-0.1-0.2c0.1-0.4,0.9,0.6,1,1c0,0.3-0.5,2.2-0.9,2.1
		c-0.1,0,0.4-1.2,0.4-1.3c-0.5,1.3-1.9,2.7-2.1,4.1c-0.1,1,0.4,1,1.3,1.2c1.3,0.3,3.4,0.1,5,0.6c-1.1-0.3-2.4-0.4-3.3-0.5
		c0,0-0.1,0-0.1-0.1c1,0.1,2.1,0.1,3,0.3c2,0.5,3.2,1.2,2.4,3.4c-0.8,2-1.9,4-2.7,6c-0.8,1.9-1.5,4-2.3,6c-0.2,0.7-1.7,3.6-1.2,4.3
		c0.7,0.8,4.5-2.6,5.5-3.7c-0.2,0.2-0.4,0.2-0.5,0.3c-0.1,0,1.4-1.9,1.6-2.2l2-2.5l3.7-4.9l3.8-5.1c0.3-0.4,2-2.8,2.4-1
		C205.3,143.7,204.6,144.8,204.2,145.7z M182.9,164.2c-0.1-0.1-0.1-0.1-0.1-0.2l0.1,0.1c-0.3-0.8-0.7-1.5-0.8-1.9l0.2,0.9l-0.3-1.4
		v-0.1c-0.1-0.1-0.1-0.2-0.1-0.2s0,0.1,0.1,0.1v-0.3c-0.1-1,0-1.9,0.1-2.7v-0.1c-0.1,0.6-0.2,1.2-0.2,1.9c-0.1,0.8,0,1.8,0.2,2.6
		c0.1,0.2,0.6,1.4,1,1.9c0-0.1,0-0.1-0.1-0.1c0.4,0.4,1,0.8,1.6,1C183.9,165.2,183.4,164.7,182.9,164.2L182.9,164.2z M182.1,158.2
		L182.1,158.2c0,0,0.1-0.1,0.1-0.1C182.2,158.1,182.1,158.1,182.1,158.2z M182.3,156.9c0,0.1-0.1,0.2-0.1,0.3
		C182.3,157.1,182.3,157,182.3,156.9z M182.5,156.9c0.5-1.8,1.2-3.5,1.9-5.1l1.3-3c0.3-0.6,1.8-4,2.1-4.2c-0.5,0.1-1.4,2.6-1.6,2.8
		c-0.6,1.2-1.2,2.3-1.6,3.6C183.8,152.9,182.9,154.8,182.5,156.9z M182.6,163.6c0-0.1-0.1-0.1-0.1-0.1
		C182.5,163.6,182.6,163.6,182.6,163.6z M184.6,140.8C184.6,140.8,184.6,140.8,184.6,140.8L184.6,140.8z M184.6,140.9
		c0.1,0.1,0.5,0.5,0.5,0.5c0.3,0.3,0.8,0.4,1.4,0.5c-0.6-0.1-1.2-0.1-1.6-0.4C184.7,141.4,184.6,141.1,184.6,140.9z M192.1,146.7
		l-1.4,3.1L192.1,146.7L192.1,146.7z M192.1,146.7L192.1,146.7L192.1,146.7L192.1,146.7z M192.1,146.7L192.1,146.7L192.1,146.7
		L192.1,146.7z"/>
	<path class="st0" d="M233.1,147.3c-0.9,2.1-1.9,3.9-3,5.8c-1.3,2.1-2.6,4-4.1,5.8c-1.2,1.6-3,3.6-5,3.9c-2.3,0.4-4.2-1.5-4.9-3.6
		c-1.6-4-0.5-8.3,0.8-12.2c0,0,0-0.6,0.1-1.1c-0.7,1-1.6,2.3-2.3,3.2c-0.8,1.3-1.4,2.6-2.3,3.8c-0.4,0.6-6,7.4-6.8,6.2
		c0,0,0.8-0.3,0.8-0.5c-0.8,0.5-1.9,0.7-2.9,0.4c0.2,0.1,0.3,0.2,0.3,0.2c-1.6,0.2-2.8-2.3-3.2-3.4c-0.5-1.9-0.4-4-0.1-6
		c0.8-4,2.4-8.3,4.7-11.7c0.6-0.8,1.2-1.8,2.1-2.4c0.5-0.5,1-0.5,1.6-1c1-0.9,1.9-1.6,3.4-1.6c3.4,0,4.7,3.8,5.4,6.5
		c1.6-2.1,4.6-4.9,7.1-1.9c1.4,1.6,0.5,2.9-0.3,4.4c-1.3,2.4-2.3,5.4-2.9,7.8c0.1-0.2,0.3-1.2,0.5-1.3c0.5-0.1-4.4,15.4,2.7,6.7
		c2.1-2.7,4-5.5,5.8-8.3c0.8-1.3,1.6-2.7,2.5-4c0.4-0.5,1.6-1.9,1.7-0.3C235.2,144.4,233.7,146,233.1,147.3z M215.7,142.2
		c0-0.5-1.4-4.3-1-4.6c0.1-0.1,0.7,1.9,0.8,2.1c-0.2-0.8-0.5-3.4-1.7-3.4c-2.3,0-4,4.2-4.7,5.8c-1.4,3.1-2.6,6.4-3.2,9.7
		c0.2-1,4.2-13.5,5.4-13.4c-1,0.2-4.6,10.8-4.8,11.7c-0.1,0.5-1.2,4.1-0.2,4.5c0.7,0.2,2.3-1.9,2.7-2.4c1.3-1.6,2.5-3.2,3.7-4.9
		l1.8-2.5c0.3-0.5,0.6-1,1-1.4C215.7,142.8,215.7,142.8,215.7,142.2z M215.9,141.7v0.7C216.1,142.2,216.1,142,215.9,141.7z
		 M217.5,145l-0.3,0.5c-0.1,0.2-0.3,1.2-0.3,1.2L217.5,145z"/>
	<path class="st0" d="M258.9,143.9c-0.4,1.5-1.3,2.9-2.1,4.3c-2.1,3.3-3.8,6.8-6.1,10.1c-2.5,3.6-5.1,7.2-8.3,10.3
		c-2.7,2.5-6.4,4.5-9.6,1.6c-2.9-2.7-2.9-7.5-2.7-11.1c0.3-3.8,1.3-7.5,2.2-11.3c0.1-0.1,0-1.8,0.3-2.3c-0.1,0.1-0.1,0.6-0.1,1
		c0.1-0.5,0.3-1,0.5-1.4h-0.2c-0.2-1.4,0.8-3.5,1.2-4.8c0.5-1.6,1-3.2,1.6-4.8c1-3,2.1-5.8,3.1-8.8c0.9-3,2.3-5.8,3.6-8.5
		c0.6-1.3,1.3-2.6,2.1-3.9c0.2-0.3,1.7-3.3,2.1-3.2l-0.5,1.2l2.2-3.8l-0.1,0.1c0.3-0.5,0.8-1.6,1.2-2l1.6-2.1c1-1.2,2.1-2.8,3.7-3.3
		c3-1,5.5,2.2,5.9,4.9l0.1,0.1v0.3c0.4,4.2-2.1,9.1-3.9,12.7c-1.1,2.2-2.3,4.9-4,6.7c-1.2,1.3-1.8,2.7-2.7,4.3
		c-2.6,4.2-5.4,8.4-8.5,12.2c-0.8,1-1.2,1.6-1.6,2.8c-0.4,1.3-0.8,2.6-1.1,4c-0.4,1.4-0.8,2.7-1.1,4.1c-0.1,0.6-0.8,2.5-0.7,2.7
		c-0.2,0.8-0.3,1.7-0.4,2.5l0.5-2.1c0.3,0.5-0.2,2.6-0.3,3.2c-0.1,1-0.2,2.1-0.2,3.2c0,1.3,0,4.3,1.7,4.5c2.3,0.3,4.8-3.2,6-4.7
		c2.8-3.4,5.1-7.1,7.5-10.8c1.2-1.9,2.4-3.8,3.6-5.8c0.8-1.2,1.4-3,2.3-4C259.1,140.2,259.2,142.8,258.9,143.9z M233.7,147.8
		c-0.3,0-0.6,1.4-0.8,3v-0.1c-0.5,2.4-0.8,4.9-0.9,7.4l0.2-2.2v0.2c0-0.5,0.1-0.9,0.2-1.4c0.4-2.1,0.5-4.7,1.3-6.6
		c0,0,0-0.1,0.1-0.2C233.8,147.9,233.8,147.7,233.7,147.8z M242.4,136c5.1-8.2,10.8-16.7,13.9-25.9c-1.2,3.3-2.9,6.5-4.5,9.5
		c-1,1.7-1.9,3.4-2.9,5.1c-0.6,1-1.9,2.6-2.3,3.7c0.5-1.8,2.2-3.8,3.2-5.5l2.9-5.4c1.6-3.3,4.1-7.3,4.3-11.2v-0.1
		c0.1-3.6-3,0.5-3.4,1.2c-1.9,3.1-3.3,6.5-4.7,9.7C246.4,123.4,244.4,130,242.4,136z M244.6,116.8c-0.1,0.1-0.1,0.2-0.1,0.3
		c1.5-2.7,3.3-5.4,4.7-8.2c-0.7,1.2-1.9,2.3-2.6,3.6C245.9,113.9,245.3,115.3,244.6,116.8z"/>
	<path class="st0" d="M299.6,143.7l-2.1,2.8l-3.7,4.8c-1,1.2-2.1,2.4-3.1,3.6c-1,1.4-1.9,2.8-3.1,4.1c-1.2,1.3-2.7,2.7-4.3,3.6
		c-1.2,0.6-2.3,0.7-3.5,0.3c-1.8-0.5-3.4-1.6-4.5-3c-0.3-0.4-0.7-0.8-0.8-1.3c-0.1-0.4-0.1-0.9-0.1-1.4c-0.1-0.8,0.2-1.4,0.3-2.3
		c0.1-0.9,0.5-1.7,0.7-2.6c0.1-1,0.4-1.9,0.5-2.7c0.1-0.8-0.1-1.7,0.1-2.5c0.1-0.5,0.5-1.1,0.8-1.7c-0.2,0.4-0.5,0.8-0.6,1.2
		c-0.2,0.5-0.3,1.1-0.5,1.6c-0.2,0.5-0.3,1-0.5,1.6c-0.3,0.6-0.5,1.2-0.6,1.9c-0.1,0.6,0,1.2-0.1,1.9c-0.1,0.6-0.3,1.1-0.3,1.7
		c0,0.2,0.1,0.6,0.1,0.8c0,0.3-0.1,0.6-0.1,1c0,0.6,0.1,1.2,0.2,1.9c-1.1-1.9-0.9-3.8-0.5-5.9c0.3-2.1,0.6-4,1.1-6
		c0.9-4,2.7-8,5.4-11.3c2.1-2.8,4.9-4.9,8.6-4.3c1.4,0.3,2.9,0.9,3.8,2.1c1,1.3,0.9,3,0.4,4.5c-0.9,2.7-3.2,4.8-5.3,6.6
		c-0.9,0.8-1.9,1.5-2.9,2.1c-0.7,0.4-1.4,0.7-2.2,1l-1.2,0.4c-0.5,0.1-0.5,0.1-0.8,0.5c-0.3,0.7-0.1,1.4-0.3,2.1
		c-0.1,0.9-0.3,1.7-0.5,2.6c-0.3,1.6-0.9,3.8-0.5,5.5c0.8,3.5,6.5-1.9,7.5-2.9c0.7-0.6,1.3-1.3,1.9-1.9c0.3-0.4,0.8-0.8,1-1.2
		c0,0,0.1-0.3,0.1-0.5c0.8-1.3,1.9-2.5,3-3.8c1.2-1.4,2.3-3,3.5-4.5c0.6-0.9,2.1-3.4,3.2-1.6v0.1c0.1,0.1,0.1,0.1,0.1,0
		C300.1,143,299.9,143.3,299.6,143.7z M281.9,145.4c2.2-1.2,4.2-2.7,5.8-4.6l1.2-1.5c0.2-0.3,0.5-0.5,0.7-1c0.1-0.3-0.1-0.6,0-1
		l0.3-1.4c0.1-0.7-0.2-2.5-1.2-2.3c-0.5,0.1-1,0.8-1.2,1.1l-1.2,1.6c-1.4,2.1-2.2,4.5-3.2,6.7c0,0,0,0.1-0.1,0.2
		C282.5,143.9,282.3,144.6,281.9,145.4z"/>
	<path class="st0" d="M320.1,148.1c-1.5,1.9-2.9,4-4.5,5.8c-1.2,1.3-3.3,3.5-5.2,2.9c-0.4-0.1-3-1.5-2.9-1.9l0.2,0.1l-0.4-0.4
		c0.3,0.5-0.4-0.1-0.5-0.1c-0.3-0.3-0.6-0.9-0.8-1.3c-0.3-0.8-0.4-1.5-0.4-2.3s0.1-1.5,0.2-2.3c0.1-1.6,0.2-3,0.7-4.5
		c0.1-0.3,1.6-4.2,2.1-4c0.1,0-0.2,0.5-0.1,0.5l1-1.9c-0.1,0.1-0.2,0.3-0.3,0.3c-0.1-0.1,0.8-1.6,1-2c-1.4,1.6-2.5,3.2-3.7,4.9
		c-0.9,1.2-2,1.9-2.6,3c-1.4,2.5-3.2,4.7-4.4,7.3l-0.3-0.5c-1.2,1.5-3.1-0.3-3.8-1.4c-0.6-1.1-0.4-1.9-0.3-3.2
		c0.1-1.1,0.1-2.2,0.4-3.4c0.4-1.4,1-2.8,1.5-4.3c0.5-1.4,1-2.9,1.5-4.3c0.3-0.9,1-2,1.2-3c0.2-0.8,0-1.2,0.9-1.8
		c0.8-0.5,1.7-0.4,2.6-0.3c1.1,0.2,3.1,1.4,1.9,3.1c-0.5,0.6-1.3,1.3-1.9,2c-0.6,0.8-0.5,1.1-0.8,2c-0.1,0.5-0.7,1-1,1.6
		c-0.4,0.8-0.7,1.7-1,2.6c-0.1,0.5-0.1,1-0.1,1.5c-0.1,1.4-0.6,2.9-0.8,4.3c0.1-0.3,0.5-0.8,0.6-0.7c0.1,0.1-0.7,1.2-0.6,1.2l4-5.9
		c-0.9,1.2-1.6,2-1.6,2c-0.2-0.1,8-10.6,8.9-11.5c2-1.9,4.5-1.8,5.5,1.4c1.1,3.4-2.5,5.7-4.1,8.2c-0.9,1.4-1.6,3-2.3,4.5
		c-0.5,0.9-1.5,2.9-1.6,4.4c0.1-1,0.9-2.3,1.2-3c0.5-1.4,1.3-2.6,2.4-3.6c-0.5,0.9-1,1.7-1.4,2.5l0.3-0.4c0.1,0-0.6,2.3-0.7,2.5
		c-0.3,0.8-0.5,1.7-0.6,2.6c-0.1,0.1,0,1.2,0,1.2l0.1,0.1c0-0.1,0.5-0.1,0.6-0.2c1-0.3,2.1-1.3,2.9-2c1.6-1.3,3.2-2.7,4.8-4.1
		c1.2-1.1,2.7-2.2,3.6-3.4c0.4-0.6,1.4-1.7,1.7-0.1C323.6,144.7,321,147,320.1,148.1z"/>
	<path class="st0" d="M381.9,111.2c-0.6,0.1-1.2,0.1-1.8,0.3c-0.2-0.1-0.4-0.1-0.7,0c0.1,0.1,0,0.3-0.1,0.3
		c-1.2,0.5-2.5,0.9-3.8,1.1c-1.4,0.3-2.7,0.7-4.1,0.9c-0.5,0.1-1.2,0.1-1.7,0.3c-0.7,0.2-0.5,0.3-1,0.5c-1.2,0.5-2.5,0.5-3.8,0.6
		c-0.7,0.1-1.4,0.3-2.1,0.5l-1.2,0.2c0,0.2-0.1,0.4-0.3,0.5c0-0.2,0-0.3,0.1-0.5c-0.4,0.1-1.2,2.8-1.3,3.2l-1.4,3.6
		c-0.7,1.8-1.4,3.5-2,5.3c0.8-2.3,1.9-5.1,2.5-6.5c-1.4,3.5-5.2,14.1-5.6,15.3c3-0.3,6-0.5,9-0.9c1.6-0.2,3.1-0.4,4.7-0.5h0.9
		c0.2-0.1,0.4-0.4,0.5-0.3c0.8,0.3,0.6,0.9,0.1,1.4c-0.9,0.8-2.3,0.5-3.4,0.8c-0.5,0.1-0.3,0.3-0.9,0.5c-0.6,0.4-1.7,0.5-2.4,0.6
		c-1.3,0.1-2.5,0.4-3.8,0.6c-1,0.1-1.4,0.7-2.6,0.8c-0.9,0.1-2.6,0-3.4,0.5c-0.4,0.3-0.8,2.2-1,2.7l-0.8,2.5c-1,3.4-2.2,6.6-3.4,9.9
		c-0.7,1.8-1.3,3.6-1.9,5.4c-0.4,1.2-1,2.3-1.1,3.6c0,0.2,0.3-1.3,0.5-1.1c0.2,0.2-0.1,1,0,1.3c3-0.5,6.2-2.6,8.9-4
		c2.6-1.4,5.1-3,7.8-4.3c1.2-0.6,1.9-0.3,1.4,1.1c-0.5,1.3-1.8,2.6-2.8,3.6c-1.5,1.4-3,2.7-4.6,4c-3.3,2.5-8.1,6.1-12.4,4.3
		c-2.7-1.1-5.5-3.6-5.2-6.8c0.1-1.3,0.9-2.2,1.5-3.3c0.1-0.3,0.8-3.1,1.1-3.2c0,0-0.2,0.7-0.3,0.9l0.3-1c-0.1-0.1,0.2-1.1,0.2-1.2
		l0.8-1.9c0.5-1.2,1-2.4,1.4-3.6c1-2.4,1.4-4.9,2.5-7.3c-1.9,0-4.8-2.5-2.3-3.7c0.1,0,0.1,0,0.1-0.1c0.9-0.3,2.1-0.2,3-0.3
		c0.4-0.1,0.8-0.3,1.2-0.3c0.1,0,0.1-0.5,0.3-0.5c0,0-0.1,0.5-0.2,0.6c0.3-0.1,0.8-1.9,1-2.6c-0.1,0.2-0.2,0.4-0.3,0.6
		c0.1,0,5.6-16.6,6-18.1c-2.2,0.3-6.3-0.1-5.9-3.2c0.1-0.8,0.4-1.2,1.2-1.4c1.9-0.7,5.8,0.3,6.9-1.4c0.9-1.2,0.1-2.9,1.8-3.4
		c1.2-0.4,2.7,0.3,3.7,1c0.5,0.4,0.8,0.9,1.3,1.4c0.1,0.2,0.2,0.4,0.2,0.7l1.3-0.2c3.2-0.3,6.3-0.5,9.5-1c3-0.3,6-0.8,9-0.9
		c0.3,0,0.8,0,1.1-0.1c0.2,0,0.5-0.3,0.5-0.3c0.3,0,0.8,0,0.8,0.5C385.4,110.6,382.7,111,381.9,111.2z M352.7,125.6
		c-0.7,1.8-1.5,3.5-2.1,5.3l-3.2,8.9c0.9-2.1,1.9-3.9,2.7-6C351.3,131.2,351.9,128.1,352.7,125.6z M354.2,134.7l-0.9,2.2
		c0.2,0,0.3-0.2,0.3-0.5L354.2,134.7z M359.2,121.6l0.2-0.5L359.2,121.6z M359.5,120.9c0,0,0.1-0.1,0.1-0.2
		C359.6,120.7,359.5,120.8,359.5,120.9z M359.7,120.5c-0.1,0-0.1,0.1-0.1,0.1C359.7,120.6,359.7,120.5,359.7,120.5z"/>
	<path class="st0" d="M396.7,143.3c0.3,2.2-3.2,4-4.6,5c-2,1.4-4,2.8-6.2,4c-0.5,0.3-1.4,0.5-1.9,1c-0.8,0.6-0.6,0.5-0.5,1.6
		c0.2,1.2,0.3,2.5,0.3,3.8c0.1,1.9-0.1,3.8-0.8,5.7c-1.6,4.3-4.9,7-9.7,6.9c-4.2-0.1-8.6-2.3-7.8-6.8c-0.1,0.1-0.3,1.3-0.3,1.2
		c-0.5-0.3,0-1.8,0.1-2.1c0.8-2.5,3-4.5,5.1-6.1c1.2-0.9,2.3-1.8,3.5-2.5c0.9-0.5,3-1.4,3.1-2.3c0.2-1-0.7-3-1-4
		c-0.3-1.3-0.8-2.7-0.9-4c-0.1-0.9,0.2-1.4,0-2.3c-0.3-1.1-0.7-2.1-0.8-3.3c-0.1-1.2-0.1-2.3,0.3-3.4c0.5-1.6,4.2-5.4,6-3.7
		c0-0.3,0.9,1,1,1.4c0,0.3-0.3,2.8-0.7,2.7c0,0,0.1-0.6,0.2-1.1c-0.3,1-0.9,1.9-1,2.9c-0.1,0.9,0.1,1.9,0.2,2.7c0-0.1,0-0.3,0.1-0.3
		c-0.1,0,0.7,3.6,1.3,6.5c-0.5-1.9-1.1-4-1.4-5.4c0.5,3,1.2,6,1.9,8.9c0.1-0.1,0.1-0.2,0.1-0.5c0.1,0.2,0.1,0.3,0.1,0.4
		c3-1.5,5.8-3,8.6-4.7c1.2-0.8,2.5-2.2,3.8-2.8C395.9,142.1,396.5,142.3,396.7,143.3L396.7,143.3z M372,166.8l1.9-0.8
		c0.1,0.1-0.5,0.5-0.5,0.5c0.8-0.5,1.5-1.1,2.1-1.9l-0.3,0.3c0.5-0.5,1.9-3.3,1.9-3.6c0.5-1.6,0.5-3.3,0.4-4.9
		c-0.1,0.1-0.3,0.2-0.5,0.3l0.5-0.4l-0.8,0.5c0.4-0.1-0.9,0.9-1.1,1l-2.1,1.4c-1.4,1-2.9,2-3.9,3.4c-0.6,0.9-2.4,3.7-0.6,4.3
		C369.9,167.2,371,167,372,166.8z M381.1,165.3c-2,2.8-5.5,4.5-8.9,4.7c1.9-0.1,3.6-0.4,5.4-1.2C379.4,168,380.3,166.9,381.1,165.3z
		 M382.2,147.4c0.2,0.8,0.3,1.4,0.4,1.9C382.5,148.9,382.3,148.2,382.2,147.4z M383.4,156.2c0,0.1,0,0.3,0.1,0.3
		C383.5,156.4,383.4,156.3,383.4,156.2z"/>
	<path class="st0" d="M431.3,142.1c-0.5,1.9-2.3,2.5-3.5,3.6c-1,0.9-2.3,1.9-3.4,2.6c-0.9,0.6-1.9,0.4-2.5,1.1
		c-0.1,0-0.1-0.1-0.1-0.1c-0.2,0.2-0.4,0.5-0.9,0.8c-0.6,0.4-0.9,0.8-1.4,1.2c-1,0.7-1.6,0.4-2.3,0.8h0.1c-0.5,0.2-3.6,4-3.9,4.4
		c-1.1,1.2-2.3,2.3-3.3,3.5c-0.9,1-2.7,3.2-4.3,3.2c-1.6,0-3.2-3-3.6-4.3c-0.6-1.9,0.3-1.2,1.4-1.5c1.6-0.4,3.1-2.5,4.2-3.6
		c1.4-1.6,2.7-3.3,4.2-4.9c0.5-0.5,1.1-1.1,1.5-1.8c0.1-0.2,0.4-1.4,0.7-1.4c0,0-0.1,0.3-0.2,0.5l0.4-0.6c-0.2,0.1,0.3-1.2,0.4-1.2
		c0.3-0.8,0.8-1.4,1.2-2.2c0.8-1.4,1.6-2.9,2-4.5c0.2-0.8,0.8-3.6-0.8-3.4c-0.5,0.1-3.7,2.5-3.8,2.5c-0.1-0.1,0.4-0.5,0.3-0.5
		c-0.5,0.5-1.2,1.2-1.7,1.9c0.1-0.1,0.3-0.2,0.4-0.3c-0.5,0.5-6,8.2-6.5,8.9c-1.1,1.5-2,3.2-3,4.8c-0.5,0.8-1,1.9-1.7,2.6
		c-0.3,0.3-0.8,0.4-1,0.7c-0.8,1-1.4,2.6-2.1,3.8c-0.9,1.5-1.7,3.2-2.7,4.7c-0.8,1.5-1.2,3.1-1.8,4.7c-0.4,1.2-0.9,2.2-1.2,3.3
		c0.1-0.2,0.2-0.4,0.3-0.5c0.2-0.1-0.3,2.5-0.4,2.6l-0.6,3.2c-0.5,2.3-0.8,4.6-1.2,6.9c-0.1,0.8-0.1,2.4-0.8,3.1
		c-1.5,1.4-3.4-1-4-2.1c-1.8-3.3-0.1-8.6,0.4-12.2c0.3-2.3,0.8-4.7,1.7-6.9c0.3-0.7,0.7-1.2,1-2c0-0.1,0.1-1.5,0.3-1.6
		c0,0.1,0.1,0.1,0.1,0.2c0-0.1,0.1-0.3,0.1-0.5c-0.3,0.6,0-1,0-1.1c0.2-0.8,0.5-1.4,0.7-2.1c0.5-1.3,0.8-2.5,1.1-3.8
		c0.1-0.5,1.9-6.3,2.5-6.2c0.1,0-0.1,0.5-0.1,0.5c0.3-0.6,0.5-1.2,0.7-1.9c-0.1,0.1-0.1,0.3-0.3,0.3c0,0,2.5-7.1,2.8-7.9
		c0.5-1.4,0.9-2.7,1.4-4.2c0.1-0.3,0.4-0.9,0.4-1.2c0-0.3-0.3-0.4-0.3-0.7c-0.1-1.8,1-3.6,3.2-3c1.2,0.3,2,1.2,2.5,2.3
		c0.6,1.2,0.3,1.6,0.1,2.7l0.2-0.3c0.3,0-0.3,2.9-0.7,2.8c-0.1,0,0.2-1,0.2-1.2c-0.5,1.9-1.2,3.8-1.8,5.6v-0.1l-0.4,1.2
		c-0.1,0.2-0.1,0.5-0.3,0.7c-1.6,4.8-4.3,13-4.5,14c0.5-1.1,1.2-2.2,1.8-3.2c-0.6,0.9-1.1,1.6-1.1,1.6s6.9-11.1,7.5-12.1
		c2.5-3.7,4.9-7.5,7.8-11.1c1.2-1.5,3.4-4.3,5.6-4.2c3.7,0.3,4.6,4.5,4.5,7.2c0.1-0.3,0.1-1,0.3-0.9c1,0.5-0.5,5.6-0.8,6.5
		c-0.8,2.3-1.9,4.5-3.2,6.7c1.4-0.8,2.6-1.6,3.9-2.5c1.2-0.8,2.7-0.8,3.8-1.3c-0.1,0-0.2-0.1-0.2-0.1c-0.2-0.5,3.4-1.6,3.8-1.7
		C430.7,142.2,431.1,142.2,431.3,142.1z M387.6,171.7c-0.1,0.1-0.1,0.1-0.1,0.1C387.6,171.7,387.6,171.7,387.6,171.7z M395.3,149.2
		c0.1,0.5-1.2,3.3-1.3,3.6c-1.1,2.8-2.5,5.6-3.4,8.5c-1,3.2-2.2,6.5-3,9.8c0.6-2.4,1.4-4.8,2.3-7c1.1-2.6,2.1-5.4,3-8.1
		c0.4-1.3,0.8-2.6,1.3-3.9c0.3-0.8,1-1.9,1-2.7v-0.1C395.4,149.4,395.4,149.3,395.3,149.2z M397.7,153.7c0.3-0.7,0.5-1.4,0.7-2.3
		C398.1,152.2,397.9,153,397.7,153.7z M398.7,150.7C398.7,150.7,398.8,150.7,398.7,150.7L398.7,150.7z M402,141.9
		c0.1-0.1,0.1-0.1,0.1-0.3L402,141.9z M402.4,141l-0.3,0.6L402.4,141z M402.4,141c0.1-0.3,0.1-0.5,0.2-0.5L402.4,141z M405.7,143.1
		c0,0.1,0,0.1-0.1,0.1v0.1C405.7,143.2,405.8,143,405.7,143.1z M406.5,142.1l1.3-1.9C407.3,140.8,406.9,141.5,406.5,142.1z
		 M419.6,148.1c-0.2,0.1-0.5,0.2-0.6,0.4L419.6,148.1z"/>
	<path class="st0" d="M459.3,147.3c-0.9,2.1-1.9,3.9-3,5.8c-1.3,2.1-2.6,4-4.1,5.8c-1.2,1.6-3,3.6-5,3.9c-2.3,0.4-4.2-1.5-4.9-3.6
		c-1.6-4-0.5-8.3,0.8-12.2c0,0,0-0.6,0.1-1.1c-0.7,1-1.6,2.3-2.3,3.2c-0.8,1.3-1.4,2.6-2.3,3.8c-0.4,0.6-6,7.4-6.8,6.2
		c0,0,0.8-0.3,0.8-0.5c-0.8,0.5-1.9,0.7-2.9,0.4c0.2,0.1,0.3,0.2,0.3,0.2c-1.6,0.2-2.8-2.3-3.2-3.4c-0.5-1.9-0.4-4-0.1-6
		c0.8-4,2.4-8.3,4.7-11.7c0.6-0.8,1.2-1.8,2.1-2.4c0.5-0.5,1-0.5,1.6-1c1-0.9,1.9-1.6,3.4-1.6c3.4,0,4.7,3.8,5.4,6.5
		c1.6-2.1,4.6-4.9,7.1-1.9c1.4,1.6,0.5,2.9-0.3,4.4c-1.3,2.4-2.3,5.4-2.9,7.8c0.1-0.2,0.3-1.2,0.5-1.3c0.5-0.1-4.4,15.4,2.7,6.7
		c2.1-2.7,4-5.5,5.8-8.3c0.8-1.3,1.6-2.7,2.5-4c0.4-0.5,1.6-1.9,1.7-0.3C461.3,144.4,459.8,146,459.3,147.3z M441.8,142.2
		c0-0.5-1.4-4.3-1-4.6c0.1-0.1,0.7,1.9,0.8,2.1c-0.2-0.8-0.5-3.4-1.7-3.4c-2.3,0-4,4.2-4.7,5.8c-1.4,3.1-2.6,6.4-3.2,9.7
		c0.2-1,4.2-13.5,5.4-13.4c-1,0.2-4.6,10.8-4.8,11.7c-0.1,0.5-1.2,4.1-0.2,4.5c0.7,0.2,2.3-1.9,2.7-2.4c1.3-1.6,2.5-3.2,3.7-4.9
		l1.8-2.5c0.3-0.5,0.6-1,1-1.4C441.8,142.8,441.8,142.8,441.8,142.2z M442,141.7v0.7C442.2,142.2,442.2,142,442,141.7z M443.7,145
		l-0.3,0.5c-0.1,0.2-0.3,1.2-0.3,1.2L443.7,145z"/>
	<path class="st0" d="M481.4,148.1c-1.5,1.9-2.9,4-4.5,5.8c-1.2,1.3-3.3,3.5-5.2,2.9c-0.4-0.1-3-1.5-2.9-1.9l0.2,0.1l-0.4-0.4
		c0.3,0.5-0.4-0.1-0.5-0.1c-0.3-0.3-0.6-0.9-0.8-1.3c-0.3-0.8-0.4-1.5-0.4-2.3s0.1-1.5,0.2-2.3c0.1-1.6,0.2-3,0.7-4.5
		c0.1-0.3,1.6-4.2,2.1-4c0.1,0-0.2,0.5-0.1,0.5l1-1.9c-0.1,0.1-0.2,0.3-0.3,0.3c-0.1-0.1,0.8-1.6,1-2c-1.4,1.6-2.5,3.2-3.7,4.9
		c-0.9,1.2-2,1.9-2.6,3c-1.4,2.5-3.2,4.7-4.4,7.3l-0.3-0.5c-1.2,1.5-3.1-0.3-3.8-1.4c-0.6-1.1-0.4-1.9-0.3-3.2
		c0.1-1.1,0.1-2.2,0.4-3.4c0.4-1.4,1-2.8,1.5-4.3c0.5-1.4,1-2.9,1.5-4.3c0.3-0.9,1-2,1.2-3c0.2-0.8,0-1.2,0.9-1.8
		c0.8-0.5,1.7-0.4,2.6-0.3c1.1,0.2,3.1,1.4,1.9,3.1c-0.5,0.6-1.3,1.3-1.9,2c-0.6,0.8-0.5,1.1-0.8,2c-0.1,0.5-0.7,1-1,1.6
		c-0.4,0.8-0.7,1.7-1,2.6c-0.1,0.5-0.1,1-0.1,1.5c-0.1,1.4-0.6,2.9-0.8,4.3c0.1-0.3,0.5-0.8,0.6-0.7c0.1,0.1-0.7,1.2-0.6,1.2l4-5.9
		c-0.9,1.2-1.6,2-1.6,2c-0.2-0.1,8-10.6,8.9-11.5c2-1.9,4.5-1.8,5.5,1.4c1.1,3.4-2.5,5.7-4.1,8.2c-0.9,1.4-1.6,3-2.3,4.5
		c-0.5,0.9-1.5,2.9-1.6,4.4c0.1-1,0.9-2.3,1.2-3c0.5-1.4,1.3-2.6,2.4-3.6c-0.5,0.9-1,1.7-1.4,2.5l0.3-0.4c0.1,0-0.6,2.3-0.7,2.5
		c-0.3,0.8-0.5,1.7-0.6,2.6c-0.1,0.1,0,1.2,0,1.2l0.1,0.1c0-0.1,0.5-0.1,0.6-0.2c1-0.3,2.1-1.3,2.9-2c1.6-1.3,3.2-2.7,4.8-4.1
		c1.2-1.1,2.7-2.2,3.6-3.4c0.4-0.6,1.4-1.7,1.7-0.1C484.9,144.7,482.3,147,481.4,148.1z M481.2,122.4c0.6,0.8-0.7,1.7-1,2.1
		c-0.4,0.5-0.8,1-1.4,1.4c-1.2,0.7-2.7,0.8-3.9,0.5c-1.4-0.4-2.7-1.4-4.1-1.7c-0.9-0.2-1.7-0.4-2.7-0.1c-0.8,0.2-1.8,1.2-2.5,0.6
		c-2.3-1.6,3.2-4.3,4.1-4.6c3.3-1.3,4.5,1.4,7.3,2.5c1,0.4,2.1,0.3,2.9-0.3C480.1,122.7,480.5,121.4,481.2,122.4z"/>
	<path class="st0" d="M512.6,147.3c-0.9,2.1-1.9,3.9-3,5.8c-1.3,2.1-2.6,4-4.1,5.8c-1.2,1.6-3,3.6-5,3.9c-2.3,0.4-4.2-1.5-4.9-3.6
		c-1.6-4-0.5-8.3,0.8-12.2c0,0,0-0.6,0.1-1.1c-0.7,1-1.6,2.3-2.3,3.2c-0.8,1.3-1.4,2.6-2.3,3.8c-0.4,0.6-6,7.4-6.8,6.2
		c0,0,0.8-0.3,0.8-0.5c-0.8,0.5-1.9,0.7-2.9,0.4c0.2,0.1,0.3,0.2,0.3,0.2c-1.6,0.2-2.8-2.3-3.2-3.4c-0.5-1.9-0.4-4-0.1-6
		c0.8-4,2.4-8.3,4.7-11.7c0.6-0.8,1.2-1.8,2.1-2.4c0.5-0.5,1-0.5,1.6-1c1-0.9,1.9-1.6,3.4-1.6c3.4,0,4.7,3.8,5.4,6.5
		c1.6-2.1,4.6-4.9,7.1-1.9c1.4,1.6,0.5,2.9-0.3,4.4c-1.3,2.4-2.3,5.4-2.9,7.8c0.1-0.2,0.3-1.2,0.5-1.3c0.5-0.1-4.4,15.4,2.7,6.7
		c2.1-2.7,4-5.5,5.8-8.3c0.8-1.3,1.6-2.7,2.5-4c0.4-0.5,1.6-1.9,1.7-0.3C514.7,144.4,513.1,146,512.6,147.3z M495.2,142.2
		c0-0.5-1.4-4.3-1-4.6c0.1-0.1,0.7,1.9,0.8,2.1c-0.2-0.8-0.5-3.4-1.7-3.4c-2.3,0-4,4.2-4.7,5.8c-1.4,3.1-2.6,6.4-3.2,9.7
		c0.2-1,4.2-13.5,5.4-13.4c-1,0.2-4.6,10.8-4.8,11.7c-0.1,0.5-1.2,4.1-0.2,4.5c0.7,0.2,2.3-1.9,2.7-2.4c1.3-1.6,2.5-3.2,3.7-4.9
		l1.8-2.5c0.3-0.5,0.6-1,1-1.4C495.2,142.8,495.2,142.8,495.2,142.2z M495.4,141.7v0.7C495.6,142.2,495.6,142,495.4,141.7z M497,145
		l-0.3,0.5c-0.1,0.2-0.3,1.2-0.3,1.2L497,145z"/>
</g>
</svg>
